<svg width="195" height="88" viewBox="0 0 195 88" fill="none" xmlns="http://www.w3.org/2000/svg">
<path opacity="0.9" d="M97.1701 30.1036H94.0904V11.9878H97.7006L102.747 22.6114C103.252 23.6725 103.588 24.4747 103.963 25.6523L104.235 25.6264C104.08 24.2159 104.002 23.1549 104.002 21.9903V11.9878H107.095V30.1036H103.536L98.5287 19.6223C97.9982 18.5095 97.6359 17.5907 97.2218 16.3615L96.963 16.4003C97.1183 17.8625 97.1701 18.8847 97.1701 20.1011V30.1036ZM112.944 30.4141C110.744 30.4141 109.489 29.146 109.489 26.998V26.9463C109.489 24.0218 111.753 22.9608 114.367 22.3008L116.968 21.6409V20.5022C116.968 19.0141 116.36 18.3413 115.001 18.3413C113.423 18.3413 112.698 19.3506 112.853 21.5245L109.786 21.188C109.592 18.0566 111.469 16.2062 115.066 16.2062C118.378 16.2062 120.074 17.6425 120.074 20.4504V27.0498C120.074 28.0332 120.229 28.1755 121.419 28.2273L121.005 30.3494C120.824 30.3883 120.526 30.4141 120.281 30.4141C117.809 30.4141 117.24 29.4178 117.744 26.9333L117.486 26.8816C116.852 29.1848 115.325 30.4141 112.944 30.4141ZM114.095 28.1238C115.752 28.1238 116.968 26.7133 116.968 24.6947V23.776L115.351 24.2289C113.746 24.6818 112.646 25.3417 112.646 26.6616V26.7133C112.646 27.6321 113.151 28.1238 114.095 28.1238ZM127.553 30.4012C125.094 30.4012 123.826 29.159 123.826 26.4934V18.8071H121.911V16.5167H123.826V13.437L126.983 12.4924V16.5167H130.542V18.8071H126.983V26.1181C126.983 27.4121 127.514 27.9167 128.588 27.9167C129.17 27.9167 129.895 27.7615 130.581 27.4638L130.4 29.7671C129.688 30.1424 128.588 30.4012 127.553 30.4012ZM135.86 14.8604H132.431V12.1948H135.86V14.8604ZM135.718 30.1036H132.561V16.5167H135.718V30.1036ZM143.883 30.4271C140.13 30.4271 138.047 27.7873 138.047 23.4525V23.1678C138.047 18.8071 140.13 16.1932 143.883 16.1932C147.635 16.1932 149.719 18.8071 149.719 23.1678V23.4525C149.719 27.7873 147.623 30.4271 143.883 30.4271ZM143.883 28.2532C145.617 28.2532 146.471 26.8557 146.471 23.9183V22.702C146.471 19.7646 145.617 18.3542 143.883 18.3542C142.136 18.3542 141.295 19.7646 141.295 22.702V23.9183C141.295 26.8557 142.136 28.2532 143.883 28.2532ZM155.205 30.1036H152.048V16.5167H155.205C155.179 17.4872 155.011 18.393 154.481 19.9846L154.752 20.0881C155.788 17.4355 157.314 16.2838 159.411 16.2838C161.792 16.2838 163.008 17.5649 163.008 20.0105V30.1036H159.864V20.6575C159.864 19.2729 159.243 18.5224 158.104 18.5224C156.37 18.5224 155.205 20.4116 155.205 23.2196V30.1036ZM168.637 30.4141C166.437 30.4141 165.182 29.146 165.182 26.998V26.9463C165.182 24.0218 167.446 22.9608 170.06 22.3008L172.661 21.6409V20.5022C172.661 19.0141 172.053 18.3413 170.694 18.3413C169.116 18.3413 168.391 19.3506 168.546 21.5245L165.48 21.188C165.285 18.0566 167.162 16.2062 170.759 16.2062C174.072 16.2062 175.767 17.6425 175.767 20.4504V27.0498C175.767 28.0332 175.922 28.1755 177.112 28.2273L176.698 30.3494C176.517 30.3883 176.22 30.4141 175.974 30.4141C173.502 30.4141 172.933 29.4178 173.438 26.9333L173.179 26.8816C172.545 29.1848 171.018 30.4141 168.637 30.4141ZM169.789 28.1238C171.445 28.1238 172.661 26.7133 172.661 24.6947V23.776L171.044 24.2289C169.439 24.6818 168.339 25.3417 168.339 26.6616V26.7133C168.339 27.6321 168.844 28.1238 169.789 28.1238ZM182.068 30.1036H178.911V11.9878H182.068V30.1036ZM97.2995 54.1036H94.0904V35.9878H104.416V38.5887H97.2995V43.5317H103.808V45.9644H97.2995V54.1036ZM109.929 38.8604H106.5V36.1948H109.929V38.8604ZM109.786 54.1036H106.629V40.5167H109.786V54.1036ZM115.739 54.1036H112.581V40.5167H115.739C115.713 41.4872 115.545 42.393 115.014 43.9846L115.286 44.0881C116.321 41.4355 117.848 40.2838 119.944 40.2838C122.325 40.2838 123.541 41.5649 123.541 44.0105V54.1036H120.397V44.6575C120.397 43.2729 119.776 42.5224 118.637 42.5224C116.903 42.5224 115.739 44.4116 115.739 47.2196V54.1036ZM129.17 54.4141C126.971 54.4141 125.715 53.146 125.715 50.998V50.9463C125.715 48.0218 127.98 46.9608 130.594 46.3008L133.195 45.6409V44.5022C133.195 43.0141 132.586 42.3413 131.228 42.3413C129.649 42.3413 128.924 43.3506 129.08 45.5245L126.013 45.188C125.819 42.0566 127.695 40.2062 131.292 40.2062C134.605 40.2062 136.3 41.6425 136.3 44.4504V51.0498C136.3 52.0332 136.455 52.1755 137.646 52.2273L137.232 54.3494C137.051 54.3883 136.753 54.4141 136.507 54.4141C134.036 54.4141 133.466 53.4178 133.971 50.9333L133.712 50.8816C133.078 53.1848 131.551 54.4141 129.17 54.4141ZM130.322 52.1238C131.978 52.1238 133.195 50.7133 133.195 48.6947V47.776L131.577 48.2289C129.973 48.6818 128.873 49.3417 128.873 50.6616V50.7133C128.873 51.6321 129.377 52.1238 130.322 52.1238ZM142.602 54.1036H139.445V40.5167H142.602C142.576 41.4872 142.408 42.393 141.877 43.9846L142.149 44.0881C143.184 41.4355 144.711 40.2838 146.807 40.2838C149.188 40.2838 150.405 41.5649 150.405 44.0105V54.1036H147.26V44.6575C147.26 43.2729 146.639 42.5224 145.5 42.5224C143.766 42.5224 142.602 44.4116 142.602 47.2196V54.1036ZM158.492 54.4271C154.675 54.4271 152.695 51.9685 152.695 47.2584V47.2066C152.695 42.6 154.727 40.1932 158.505 40.1932C161.921 40.1932 163.746 42.0048 164.017 45.4339L160.873 45.8091C160.731 43.4411 160.006 42.3542 158.492 42.3542C156.758 42.3542 155.943 43.7517 155.943 46.689V47.776C155.943 50.8039 156.784 52.2402 158.531 52.2402C160.019 52.2402 160.808 51.1533 160.951 48.9665L164.173 49.3676C163.797 52.6673 161.856 54.4271 158.492 54.4271ZM174.46 49.3935L177.488 49.7817C177.022 52.8743 175.055 54.4141 171.794 54.4141C168.055 54.4141 165.997 52.1108 165.997 47.9183V46.7149C165.997 42.5224 168.068 40.2062 171.885 40.2062C175.443 40.2062 177.423 42.4059 177.423 46.3267C177.423 46.9349 177.397 47.5043 177.332 48.1642H169.129V48.423C169.129 51.0239 170.086 52.2791 171.898 52.2791C173.36 52.2791 174.214 51.4509 174.46 49.3935ZM171.859 42.3413C170.099 42.3413 169.193 43.5576 169.129 46.0032H174.292V45.6539C174.292 43.3894 173.476 42.3413 171.859 42.3413ZM100.806 78.4271C96.0314 78.4271 93.5598 75.2309 93.5598 69.0716V69.0198C93.5598 62.8734 96.0314 59.6643 100.806 59.6643C105.568 59.6643 108.04 62.8734 108.04 69.0198V69.0716C108.04 75.2309 105.568 78.4271 100.806 78.4271ZM100.806 75.8909C103.472 75.8909 104.753 73.8981 104.753 69.7703V68.4375C104.753 64.2321 103.472 62.2005 100.793 62.2005C98.1276 62.2005 96.8336 64.2321 96.8336 68.4375V69.7703C96.8336 73.8981 98.1276 75.8909 100.806 75.8909ZM113.642 78.1036H110.485V59.9878H113.642V78.1036ZM115.959 82.9431L115.558 80.2516L117.317 80.0834C118.831 79.941 119.336 79.5528 119.504 78.9058L119.672 78.2589L115.247 64.5167H118.495L120.41 71.8277C120.721 72.9794 120.941 74.1181 121.135 75.4768H121.406C121.601 74.1181 121.82 73.0053 122.131 71.8536L123.994 64.5167H127.074L123.192 77.4436C122.002 81.4809 120.488 82.6843 115.959 82.9431ZM131.862 78.1036H128.704V64.5167H131.875C131.901 65.3449 131.745 66.0825 131.15 67.9199L131.409 68.0364C132.625 65.2543 133.88 64.2838 135.731 64.2838C137.814 64.2838 138.772 65.6813 138.267 68.0493L138.526 68.127C139.483 65.4096 140.959 64.2838 142.99 64.2838C145.203 64.2838 146.264 65.5131 146.264 68.0364V78.1036H143.107V68.5669C143.107 67.2212 142.589 66.5483 141.554 66.5483C139.975 66.5483 139.069 68.4893 139.069 71.0902V78.1036H135.925V68.5928C135.925 67.2729 135.381 66.5353 134.398 66.5353C132.871 66.5353 131.862 68.3987 131.862 71.1678V78.1036ZM156.124 64.2838C159.023 64.2838 160.549 66.6 160.549 71.0255V71.5948C160.549 76.0203 159.023 78.3365 156.124 78.3365C153.821 78.3365 152.462 76.9519 151.75 74.7522L151.479 74.8557C151.957 76.512 152.151 77.6636 152.151 78.9447V82.6325H148.994V64.5167H152.139C152.113 65.1896 151.906 66.2766 151.479 67.7646L151.75 67.8552C152.475 65.5778 153.834 64.2838 156.124 64.2838ZM154.882 66.4059C153.109 66.4059 152.151 67.9846 152.151 70.9349V71.6725C152.151 74.6357 153.109 76.2273 154.882 76.2273C156.538 76.2273 157.366 74.791 157.366 71.8019V70.8055C157.366 67.8293 156.538 66.4059 154.882 66.4059ZM166.191 62.8604H162.762V60.1948H166.191V62.8604ZM166.049 78.1036H162.892V64.5167H166.049V78.1036ZM171.717 78.4141C169.517 78.4141 168.262 77.146 168.262 74.998V74.9463C168.262 72.0218 170.526 70.9608 173.14 70.3008L175.741 69.6409V68.5022C175.741 67.0141 175.133 66.3413 173.774 66.3413C172.195 66.3413 171.471 67.3506 171.626 69.5245L168.559 69.188C168.365 66.0566 170.241 64.2062 173.839 64.2062C177.151 64.2062 178.846 65.6425 178.846 68.4504V75.0498C178.846 76.0332 179.002 76.1755 180.192 76.2273L179.778 78.3494C179.597 78.3883 179.299 78.4141 179.053 78.4141C176.582 78.4141 176.013 77.4178 176.517 74.9333L176.258 74.8816C175.624 77.1848 174.097 78.4141 171.717 78.4141ZM172.868 76.1238C174.525 76.1238 175.741 74.7133 175.741 72.6947V71.776L174.123 72.2289C172.519 72.6818 171.419 73.3417 171.419 74.6616V74.7133C171.419 75.6321 171.924 76.1238 172.868 76.1238ZM185.459 78.3365C182.56 78.3365 181.033 76.0203 181.033 71.5948V71.0255C181.033 66.6 182.56 64.2838 185.459 64.2838C187.762 64.2838 189.108 65.6684 189.832 67.8682L190.104 67.7646C189.612 66.1083 189.431 64.9567 189.431 63.6756V59.9878H192.576V78.1036H189.444C189.457 77.4307 189.677 76.3438 190.104 74.8557L189.832 74.7522C189.095 77.0425 187.749 78.3365 185.459 78.3365ZM186.701 76.2144C188.474 76.2144 189.431 74.6357 189.431 71.6854V70.9478C189.431 67.9846 188.474 66.393 186.701 66.393C185.032 66.393 184.216 67.8293 184.216 70.8184V71.8148C184.216 74.791 185.032 76.2144 186.701 76.2144Z" fill="#2C6AB1"/>
<path d="M36.8979 84.9736L36.3335 84.8184L36.1783 85.3651L36.7568 85.5238C36.9155 85.5626 37.0707 85.4709 37.106 85.3192C37.1413 85.1675 37.0496 85.0123 36.8979 84.9736Z" fill="#2C6AB1"/>
<path d="M36.1022 82.6439C35.7742 81.8432 35.1781 81.3777 34.575 81.3882C34.1658 81.9455 34.0283 82.8555 34.3563 83.6738C34.455 83.9243 34.5891 84.1359 34.7407 84.3228C34.7407 84.3228 34.4445 84.217 34.1446 84.1112C33.8448 84.0089 33.5521 83.8925 33.5521 83.8925L33.3405 83.8114C33.672 83.2506 33.7355 82.4429 33.4886 81.7022C33.217 80.8627 32.6421 80.3689 32.0389 80.3266C31.5875 80.8592 31.397 81.7445 31.665 82.5981C31.7462 82.852 31.8661 83.0742 32.0072 83.2682C32.0072 83.2682 31.7144 83.1448 31.4252 83.0213C31.136 82.8873 30.8503 82.7568 30.8503 82.7568L30.6457 82.6615C31.0161 82.1219 31.1325 81.3283 30.9314 80.5664C30.7162 79.7058 30.166 79.1838 29.5699 79.0991C29.0867 79.6 28.8363 80.4782 29.0514 81.3424C29.1184 81.5999 29.2207 81.8291 29.3512 82.0302C29.3512 82.0302 29.0691 81.8891 28.7869 81.7445C28.5082 81.5928 28.2296 81.4411 28.2296 81.4411L28.0321 81.3318C28.4342 80.8204 28.6035 80.0268 28.4518 79.2578C28.279 78.4043 27.7887 77.8082 27.182 77.7094C26.6635 78.1856 26.3672 79.0356 26.526 79.9068C26.5753 80.1714 26.6635 80.4077 26.7764 80.6193L25.69 79.9668L25.4996 79.8433C25.9334 79.3601 26.1556 78.5771 26.0569 77.7941C26.0004 77.3602 25.8558 76.9934 25.6477 76.7183C25.4431 76.4396 25.1856 76.2386 24.8894 76.168C24.3462 76.6054 23.9899 77.4378 24.0887 78.3267C24.1169 78.5983 24.191 78.8381 24.2968 79.0497C24.2968 79.0497 24.0287 78.8804 23.7748 78.69C23.5173 78.5065 23.2598 78.3196 23.2598 78.3196L23.0764 78.1891C23.5385 77.7341 23.8101 76.9687 23.7536 76.1892C23.6937 75.318 23.2845 74.6655 22.6955 74.4926C22.1205 74.8983 21.7149 75.7024 21.7643 76.5878C21.7784 76.8558 21.8348 77.1027 21.923 77.3285L20.9319 76.5419L20.7555 76.4008C21.2458 75.974 21.5632 75.2333 21.5738 74.4362C21.5844 73.5509 21.1788 72.9125 20.6285 72.6761C20.0395 73.0324 19.5633 73.8295 19.5563 74.7113C19.5563 74.9759 19.5986 75.2263 19.6727 75.452C19.6727 75.452 19.4328 75.2439 19.1965 75.0358C19.0766 74.9335 18.9602 74.8242 18.8755 74.7395C18.7909 74.6584 18.7345 74.602 18.7345 74.602L18.5722 74.4432C19.0907 74.0517 19.4611 73.3287 19.5104 72.5421C19.5387 72.1083 19.4646 71.7203 19.3129 71.4134C19.1754 71.096 18.9567 70.8561 18.6816 70.7256C18.0608 71.0501 17.5493 71.7943 17.4753 72.6867C17.4541 72.9548 17.4682 73.2158 17.5317 73.4415C17.5317 73.4415 17.4753 73.3851 17.3906 73.304C17.3095 73.2158 17.2001 73.1029 17.0943 72.9865C16.8792 72.7537 16.6605 72.5245 16.6605 72.5245L16.5053 72.3587C17.0485 72.0024 17.4647 71.3076 17.5599 70.5316C17.6763 69.6675 17.4012 68.9444 16.8615 68.6587C16.2196 68.9409 15.6623 69.6498 15.5353 70.5281C15.4965 70.7926 15.5036 71.0466 15.5424 71.2829L14.7241 70.3165L14.5795 70.1436C15.1473 69.8227 15.5953 69.1631 15.7646 68.3836C15.9445 67.5194 15.6976 66.7999 15.1791 66.4754C14.5266 66.7117 13.9093 67.396 13.7365 68.2531C13.6836 68.5141 13.6765 68.7645 13.7012 69.0044C13.7012 69.0044 13.5107 68.7539 13.3167 68.5C13.2215 68.373 13.1263 68.2495 13.0522 68.1543C12.9817 68.0591 12.9393 67.9921 12.9393 67.9921L12.8123 67.8051C13.3979 67.5229 13.9022 66.8845 14.1103 66.1227C14.2267 65.6994 14.2303 65.3044 14.1456 64.9693C14.1033 64.8035 14.0363 64.6518 13.9481 64.5213C13.867 64.3838 13.7682 64.2674 13.6483 64.1757C12.9817 64.3697 12.3256 65.0116 12.0787 65.8652C12.0082 66.1227 11.987 66.3696 12.0011 66.6094C12.0011 66.6094 11.8247 66.3484 11.6449 66.0839C11.4756 65.8158 11.3168 65.5442 11.3168 65.5442L11.2004 65.3502C11.8036 65.1068 12.3468 64.5037 12.5972 63.7559C12.7348 63.3433 12.7665 62.9482 12.696 62.6131C12.6254 62.278 12.4949 61.9782 12.2586 61.7842C11.5778 61.9359 10.8936 62.532 10.5867 63.3785C10.4879 63.636 10.4597 63.8794 10.4562 64.1192C10.4562 64.1192 10.4139 64.0522 10.3539 63.9499C10.2904 63.8476 10.2128 63.7136 10.1423 63.569C9.99414 63.2868 9.84953 63.0082 9.84953 63.0082L9.74371 62.8071C10.361 62.599 10.9394 62.0311 11.2357 61.3045C11.398 60.8989 11.4509 60.5109 11.4015 60.1688C11.3662 59.8231 11.2392 59.5198 11.0205 59.3082C10.3328 59.421 9.61321 59.9713 9.25696 60.7966C9.14762 61.0471 9.08766 61.2975 9.07708 61.5303C9.07708 61.5303 8.92541 61.2516 8.80196 60.9589C8.67145 60.6697 8.54095 60.3804 8.54095 60.3804L8.44924 60.1759C9.07708 60.0066 9.68728 59.4739 10.0259 58.765C10.2128 58.3699 10.2869 57.982 10.2587 57.6398C10.2446 57.2906 10.1352 56.9802 9.92713 56.7545C9.23227 56.825 8.48452 57.3365 8.07889 58.1372C7.95544 58.3805 7.87784 58.6274 7.85668 58.8602C7.85668 58.8602 7.82493 58.7897 7.77555 58.6803C7.72617 58.571 7.67327 58.4229 7.61683 58.2747C7.50396 57.9784 7.39109 57.6821 7.39109 57.6821L7.30997 57.4705C7.94486 57.3365 8.5868 56.8427 8.96774 56.1514C9.17584 55.7669 9.27107 55.386 9.26402 55.0403C9.25344 54.6946 9.17584 54.3737 8.97832 54.1373C8.28347 54.1691 7.50396 54.6382 7.05249 55.4177C6.9114 55.654 6.83733 55.8903 6.795 56.1231C6.795 56.1231 6.76679 56.0491 6.72446 55.9397C6.67861 55.8304 6.62923 55.6787 6.58337 55.5271C6.48814 55.2237 6.39291 54.9239 6.39291 54.9239L6.32589 54.7087C6.96783 54.6135 7.638 54.1515 8.0542 53.4813C8.28347 53.1109 8.40339 52.73 8.41397 52.3843C8.42103 52.2115 8.39634 52.0457 8.35401 51.8941C8.31521 51.7389 8.25525 51.5978 8.16354 51.4708C7.46869 51.4638 6.66097 51.8941 6.17422 52.6454C6.03313 52.8711 5.94143 53.1039 5.88852 53.3332C5.88852 53.3332 5.79329 53.0298 5.69805 52.73L5.53933 52.1163L5.4829 51.8976C6.12837 51.8341 6.82322 51.4108 7.27822 50.7619C7.78261 50.0388 7.83552 49.2663 7.4828 48.7584C6.79148 48.7161 5.95554 49.1041 5.45821 49.8236C5.30654 50.0423 5.20072 50.2716 5.13018 50.4973C5.13018 50.4973 5.05258 50.1904 4.97498 49.8836C4.93619 49.7284 4.89739 49.5767 4.86917 49.4603C4.84095 49.3439 4.82684 49.2663 4.82684 49.2663L4.78452 49.0441C5.43352 49.0159 6.14953 48.6279 6.63981 47.9966C7.18299 47.2982 7.28528 46.5222 6.95725 45.9966C6.25887 45.9226 5.42293 46.2682 4.87975 46.9666C4.71397 47.1782 4.59758 47.4005 4.51293 47.6262L4.27661 46.3811L4.23428 46.1589C4.89386 46.1589 5.59577 45.8132 6.12837 45.203C6.71035 44.5293 6.85496 43.7534 6.55868 43.2102C5.86383 43.1008 5.01378 43.4112 4.4318 44.0849C4.25544 44.2895 4.12494 44.5082 4.0297 44.7269L3.86393 43.4677L3.83571 43.2419C4.48824 43.2737 5.22894 42.9527 5.75802 42.3742C5.90616 42.212 6.02255 42.0462 6.11426 41.8734C6.21655 41.7006 6.28709 41.5277 6.33294 41.3549C6.42465 41.0092 6.40349 40.6777 6.27298 40.399C5.58871 40.2615 4.72103 40.5366 4.10377 41.1821C3.91683 41.3796 3.77222 41.5912 3.66641 41.8064L3.5747 40.5401L3.55706 40.3144C4.20606 40.3743 4.9644 40.0851 5.52522 39.5278C5.83561 39.2174 6.03666 38.8718 6.12837 38.5332C6.17422 38.3639 6.19186 38.1946 6.18128 38.0358C6.18128 37.8736 6.14953 37.7184 6.0931 37.5738C5.41941 37.408 4.53056 37.6478 3.89214 38.2686C3.7052 38.4556 3.56059 38.6637 3.45478 38.8753C3.45478 38.8753 3.43009 38.5579 3.40892 38.2439C3.39481 37.9265 3.39129 37.609 3.39129 37.609V37.3833C4.0297 37.468 4.80215 37.214 5.39472 36.6743C6.04724 36.0783 6.28004 35.3199 6.04372 34.7379C5.3665 34.5439 4.48823 34.752 3.83218 35.3481C3.63466 35.528 3.47947 35.7291 3.35954 35.9372L3.33838 34.6674V34.4417C3.98032 34.551 4.74219 34.3253 5.34886 33.8068C6.03313 33.2318 6.30473 32.4805 6.10368 31.8915C5.43704 31.6764 4.5482 31.8527 3.8604 32.4241C3.6523 32.5969 3.48652 32.7945 3.35954 32.9955L3.4054 31.7257L3.41245 31.5C4.05087 31.6305 4.8339 31.433 5.45115 30.9356C6.13895 30.3854 6.38938 29.6412 6.23418 29.0416C5.57813 28.8017 4.6787 28.9499 3.96621 29.4966C3.75811 29.6623 3.59586 29.8528 3.46536 30.0503C3.46536 30.0503 3.47947 29.7329 3.49005 29.4154C3.51826 29.098 3.54648 28.7841 3.54648 28.7841L2.98214 28.7453C2.98214 28.7453 2.95392 29.0627 2.9257 29.3802C2.91159 29.7011 2.90101 30.0186 2.90101 30.0186C2.78461 29.8034 2.63647 29.5953 2.44248 29.4013C1.83228 28.7629 0.971651 28.4737 0.280326 28.6324C-0.0124288 29.2356 0.220364 30.0821 0.858781 30.724C1.43724 31.306 2.20616 31.56 2.85163 31.4753L2.84458 31.7046L2.79872 32.9814C2.68233 32.7733 2.53419 32.5687 2.33666 32.3818C1.69472 31.761 0.819982 31.5 0.139239 31.6869C-0.107662 32.3042 0.107495 33.1401 0.749439 33.7574C1.342 34.3182 2.13562 34.5475 2.77051 34.4381V34.6674L2.79872 35.9477C2.67174 35.7432 2.5095 35.5457 2.30492 35.3622C1.63123 34.7661 0.742385 34.5369 0.0722232 34.745C-0.139407 35.3728 0.118076 36.2017 0.791765 36.7978C1.40196 37.3375 2.18147 37.535 2.81989 37.4045V37.6337C2.81989 37.6337 2.82341 37.9547 2.84105 38.2722C2.86574 38.5896 2.8869 38.9106 2.8869 38.9106C2.74934 38.7095 2.57651 38.5191 2.36135 38.3462C1.67003 37.7748 0.795292 37.5773 0.121604 37.8136C0.068696 37.9723 0.0440059 38.1452 0.0510602 38.318C0.0651689 38.4944 0.107495 38.6742 0.178038 38.8506C0.319125 39.2069 0.573081 39.5525 0.925797 39.8382C1.56421 40.3532 2.35783 40.519 2.98919 40.3638L3.00683 40.593L3.09853 41.8699C2.96097 41.6759 2.78814 41.4889 2.57651 41.3267C1.87108 40.7835 0.971651 40.6212 0.315598 40.8858C0.227419 41.2103 0.259163 41.5736 0.40025 41.9263C0.470793 42.1027 0.569554 42.2755 0.696532 42.4377C0.830564 42.6 0.992814 42.7517 1.17623 42.8857C1.84639 43.376 2.64705 43.5065 3.26784 43.3231L3.29605 43.5488L3.46183 44.8186C3.31369 44.6316 3.13028 44.4517 2.90806 44.2966C2.17089 43.7851 1.26441 43.6617 0.622461 43.9509C0.481374 44.6069 0.834091 45.4041 1.57127 45.9155C2.22732 46.3776 3.06326 46.4693 3.66641 46.2612L3.70873 46.4869L3.94858 47.7461C3.78986 47.5662 3.59586 47.3969 3.36307 47.2523C2.59767 46.7762 1.68061 46.695 1.0563 47.0125C0.954015 47.6721 1.34906 48.4551 2.11798 48.9313C2.8093 49.3616 3.6135 49.418 4.22017 49.1782L4.2625 49.4039C4.2625 49.4039 4.27308 49.485 4.30482 49.5979C4.33304 49.7143 4.37184 49.8695 4.41064 50.0247C4.48824 50.3351 4.56583 50.6455 4.56583 50.6455C4.39653 50.4726 4.19195 50.3139 3.95211 50.1834C3.15144 49.7496 2.25201 49.7037 1.63476 50.0564C1.56421 50.7231 2.01216 51.4849 2.80578 51.9223C3.52532 52.3173 4.32951 52.335 4.92208 52.0634L4.97851 52.2856L5.13723 52.9064L5.33123 53.5166C5.15134 53.3543 4.93971 53.2062 4.68928 53.0863C3.89214 52.6877 2.98919 52.6877 2.38957 53.0721C2.37546 53.2414 2.38957 53.4143 2.43542 53.5871C2.4848 53.7564 2.57298 53.9257 2.68233 54.0844C2.90454 54.4019 3.23256 54.6841 3.64172 54.8816C4.38242 55.2378 5.19014 55.2131 5.7686 54.9098L5.83914 55.1285C5.83914 55.1285 5.93437 55.4353 6.03313 55.7387C6.07899 55.8939 6.1319 56.042 6.17775 56.1549C6.22007 56.2678 6.24829 56.3418 6.24829 56.3418C6.05782 56.1902 5.83561 56.0561 5.59224 55.9433C4.78099 55.5835 3.87098 55.6364 3.29605 56.0491C3.29253 56.3877 3.39129 56.7439 3.63466 57.0473C3.87451 57.3541 4.22017 57.6187 4.64343 57.7915C5.4053 58.1054 6.21302 58.0349 6.77031 57.6998L6.85144 57.9149C6.85144 57.9149 6.96431 58.2148 7.0807 58.5146C7.14067 58.6627 7.19357 58.8144 7.23943 58.9237C7.28881 59.0331 7.32055 59.1071 7.32055 59.1071C7.1195 58.966 6.90082 58.8391 6.65039 58.7438C5.81798 58.4299 4.9115 58.5322 4.36126 58.9801C4.37184 59.3188 4.50587 59.6679 4.75277 59.9642C5.01026 60.257 5.37003 60.5004 5.80387 60.652C6.58337 60.9236 7.38404 60.8037 7.9237 60.4369L8.01893 60.645C8.01893 60.645 8.14943 60.9377 8.28347 61.2305C8.41044 61.5268 8.56211 61.8089 8.56211 61.8089C8.35048 61.682 8.12474 61.5691 7.87079 61.488C7.02074 61.2234 6.12131 61.3786 5.59929 61.8548C5.63104 62.1934 5.78623 62.532 6.04724 62.8142C6.32236 63.0928 6.69624 63.315 7.13714 63.4385C7.93428 63.6642 8.72436 63.4984 9.23933 63.0999L9.34514 63.3009C9.34514 63.3009 9.49329 63.5831 9.64143 63.8688C9.71197 64.0134 9.79309 64.151 9.85658 64.2533C9.92007 64.3555 9.95887 64.4261 9.95887 64.4261C9.74724 64.3097 9.50034 64.218 9.24286 64.151C8.38223 63.9393 7.49338 64.1474 6.99958 64.6554C7.05601 64.9904 7.21826 65.3255 7.51454 65.5865C7.80377 65.8475 8.19176 66.0486 8.63618 66.1474C9.4439 66.3237 10.2199 66.1121 10.7102 65.6818L10.8266 65.8793C10.8266 65.8793 10.9888 66.1579 11.1581 66.426C11.338 66.6905 11.5179 66.9551 11.5179 66.9551C11.2992 66.8493 11.0523 66.7717 10.7807 66.7258C9.89891 66.5741 9.03475 66.8281 8.56917 67.3713C8.60444 67.5371 8.67145 67.7028 8.76669 67.8545C8.86898 68.0026 8.99948 68.1402 9.15115 68.2637C9.45449 68.507 9.85306 68.6869 10.301 68.7575C11.1158 68.888 11.8741 68.6234 12.3362 68.1649L12.4632 68.3554C12.4632 68.3554 12.5055 68.4224 12.5796 68.5211C12.6536 68.6164 12.7489 68.7433 12.8476 68.8738C13.0416 69.1278 13.2356 69.3853 13.2356 69.3853C13.0134 69.2936 12.763 69.2266 12.4914 69.2019C11.5849 69.1172 10.7384 69.4241 10.3116 69.9955C10.5126 70.6445 11.2322 71.1806 12.1316 71.2688C12.9429 71.3534 13.7012 71.0289 14.128 70.5422L14.2761 70.7186L15.105 71.6991C14.8793 71.6215 14.6288 71.5686 14.3537 71.558C13.4543 71.5228 12.6148 71.8966 12.2339 72.4892C12.4808 73.1206 13.2109 73.6285 14.1245 73.6496C14.9569 73.6637 15.6835 73.3004 16.0785 72.7855L16.2337 72.9513C16.2337 72.9513 16.4524 73.184 16.6711 73.4204C16.7804 73.5368 16.8898 73.6532 16.9709 73.7413C17.0555 73.826 17.1155 73.8824 17.1155 73.8824C16.8756 73.8295 16.6287 73.7872 16.3571 73.7907C15.4648 73.8084 14.6535 74.2351 14.3114 74.8524C14.449 75.1663 14.71 75.4344 15.0486 75.6248C15.3978 75.8047 15.8245 75.9 16.2831 75.8788C17.1084 75.8435 17.8068 75.4344 18.1666 74.8947L18.3324 75.0534C18.3324 75.0534 18.3888 75.1099 18.477 75.191C18.5616 75.2757 18.678 75.3885 18.8015 75.4908C19.0413 75.7024 19.2847 75.9141 19.2847 75.9141C19.0484 75.8682 18.7909 75.8541 18.5158 75.8823C17.6163 75.9705 16.851 76.4361 16.5406 77.0816C16.8474 77.6988 17.6763 78.0621 18.5722 77.9739C19.387 77.8928 20.0571 77.4343 20.3816 76.8735L20.5615 77.0146L21.5668 77.8117C21.3305 77.7799 21.073 77.7799 20.8049 77.8223C19.9161 77.9669 19.1683 78.4995 18.9073 79.1555C19.2741 79.7269 20.0889 80.0797 20.9883 79.9174C21.8066 79.7693 22.445 79.2684 22.7343 78.6864L22.9212 78.8205C22.9212 78.8205 23.1822 79.0074 23.4432 79.1943C23.7007 79.3848 23.9723 79.5576 23.9723 79.5576C23.7289 79.5471 23.4714 79.5647 23.2104 79.6211C22.3392 79.8116 21.6303 80.39 21.4116 81.0637C21.6091 81.3424 21.9124 81.5611 22.2863 81.6739C22.6602 81.7833 23.0976 81.7974 23.5385 81.688C24.3391 81.4976 24.9423 80.9615 25.1927 80.3583L25.3867 80.4818L26.4872 81.1413C26.2473 81.1413 25.9934 81.1731 25.7324 81.2507C24.8682 81.5082 24.1945 82.1325 24.0217 82.8167C24.459 83.3352 25.3091 83.5786 26.1838 83.3035C26.9739 83.0531 27.5453 82.4781 27.757 81.8644L27.958 81.9737C27.958 81.9737 28.2402 82.1254 28.5223 82.2806C28.808 82.4252 29.0937 82.5698 29.0937 82.5698C28.8539 82.5875 28.5999 82.6369 28.3425 82.7321C27.4995 83.039 26.8716 83.695 26.7411 84.3934C27.1926 84.9119 28.085 85.0565 28.928 84.7461C29.7004 84.4498 30.2365 83.8361 30.4059 83.2083L30.614 83.3035L31.1959 83.5716C31.4922 83.6985 31.785 83.822 31.785 83.822C31.5451 83.8537 31.2982 83.9207 31.0478 84.0336C30.2295 84.3899 29.6405 85.0918 29.5558 85.7937C30.0426 86.2769 30.9385 86.3792 31.7673 86.0053C32.5222 85.6561 33.0124 85.0106 33.1394 84.3722L33.3546 84.4533C33.3546 84.4533 33.6508 84.5733 33.9542 84.6756L34.5573 84.8907C34.321 84.9366 34.0776 85.0177 33.8378 85.1447C33.0371 85.5679 32.5045 86.2945 32.4657 87.007C32.9948 87.4479 33.8977 87.5043 34.7055 87.0634C35.4391 86.6684 35.8765 85.9806 35.9506 85.3351L36.1692 85.4022L36.3244 84.8554L36.1093 84.792C36.3915 84.2029 36.3915 83.4023 36.0987 82.6757L36.1022 82.6439Z" fill="#2C6AB1"/>
<path d="M3.55266 28.5511C4.04294 28.1772 4.40624 27.567 4.46972 26.8263C4.54732 25.9375 4.18402 25.1333 3.60204 24.7029C2.95657 24.9922 2.45924 25.7258 2.38164 26.6358C2.31463 27.3942 2.56505 28.0714 2.98479 28.5088L2.96362 28.738L3.52797 28.7768L3.54913 28.5476L3.55266 28.5511Z" fill="#2C6AB1"/>
<path d="M74.6041 38.3354C74.389 38.5083 74.2161 38.7023 74.0786 38.8998C74.0786 38.8998 74.1033 38.5823 74.1244 38.2614C74.1385 37.9404 74.1421 37.6229 74.1421 37.6229V37.3937C74.784 37.5242 75.567 37.3267 76.1772 36.787C76.8509 36.1909 77.1119 35.362 76.8968 34.7342C76.2266 34.5261 75.3413 34.7554 74.6641 35.3515C74.4595 35.5313 74.2973 35.7324 74.1703 35.937L74.1915 34.6566V34.4273C74.8299 34.5367 75.6235 34.3074 76.2196 33.7466C76.8615 33.1258 77.0767 32.2934 76.8298 31.6761C76.149 31.4927 75.2743 31.7537 74.6323 32.371C74.4384 32.5579 74.2867 32.7625 74.1703 32.9741L74.1244 31.6973L74.1174 31.468C74.7628 31.5527 75.5318 31.2987 76.1102 30.7168C76.7486 30.0748 76.9814 29.2318 76.6887 28.6251C75.9974 28.4629 75.1367 28.7521 74.5265 29.3941C74.3325 29.5881 74.1809 29.7997 74.068 30.0113C74.068 30.0113 74.0539 29.6904 74.0433 29.3729C74.0151 29.0555 73.9869 28.738 73.9869 28.738L73.9657 28.5088C74.3854 28.0679 74.6359 27.3942 74.5689 26.6358C74.4877 25.7258 73.9939 24.9922 73.3485 24.7029C72.7665 25.1333 72.4032 25.9375 72.4808 26.8263C72.5443 27.567 72.9076 28.1772 73.3978 28.5511L73.419 28.7803C73.419 28.7803 73.4472 29.0978 73.4754 29.4117L73.5001 30.0466C73.3696 29.8491 73.2074 29.6586 72.9993 29.4928C72.2833 28.9426 71.3838 28.798 70.7313 29.0378C70.5761 29.6374 70.823 30.3817 71.5143 30.9319C72.1316 31.4292 72.9181 31.6268 73.553 31.4963L73.5601 31.722L73.6059 32.9918C73.4754 32.7872 73.3097 32.5932 73.1051 32.4204C72.4208 31.8455 71.5284 31.6691 70.8618 31.8878C70.6572 32.4803 70.9288 33.2316 71.6166 33.803C72.2233 34.318 72.9852 34.5473 73.6306 34.4379V34.6637L73.6024 35.9334C73.4825 35.7253 73.3308 35.5243 73.1298 35.3444C72.4772 34.7483 71.5955 34.5402 70.9182 34.7342C70.6819 35.3162 70.9147 36.0745 71.5672 36.6706C72.1598 37.2103 72.9323 37.4642 73.5742 37.3796V37.6053C73.5742 37.6053 73.5707 37.9228 73.553 38.2402C73.5283 38.5576 73.5072 38.8716 73.5072 38.8716C73.3978 38.6599 73.2567 38.4554 73.0698 38.2649C72.4314 37.6441 71.5425 37.4007 70.8689 37.57C70.8089 37.7147 70.7807 37.8698 70.7807 38.0321C70.7701 38.1943 70.7877 38.3601 70.8336 38.5294C70.9253 38.868 71.1263 39.2137 71.4367 39.5241C71.9976 40.0849 72.7559 40.3706 73.4049 40.3106L73.3873 40.5364L73.2955 41.8026C73.1897 41.5875 73.0451 41.3723 72.8582 41.1783C72.2409 40.5293 71.3732 40.2542 70.689 40.3953C70.5549 40.6739 70.5373 41.009 70.629 41.3512C70.6749 41.524 70.7489 41.6968 70.8477 41.8697C70.9394 42.0425 71.0593 42.2083 71.2039 42.3705C71.733 42.9525 72.4737 43.2699 73.1262 43.2382L73.098 43.4639L72.9323 44.7231C72.837 44.5009 72.7065 44.2822 72.5302 44.0812C71.9482 43.4075 71.0981 43.0971 70.4033 43.2064C70.107 43.7532 70.2516 44.5256 70.8336 45.1993C71.3697 45.8095 72.0681 46.1552 72.7277 46.1552L72.6853 46.3774L72.449 47.6225C72.3679 47.3967 72.248 47.1745 72.0822 46.9629C71.539 46.2645 70.7066 45.9188 70.0047 45.9929C69.6767 46.522 69.7754 47.298 70.3221 47.9928C70.8124 48.6207 71.532 49.0086 72.1774 49.0404L72.1351 49.2626C72.1351 49.2626 72.1245 49.3402 72.0928 49.4566C72.0646 49.573 72.0258 49.7247 71.987 49.8798L71.8318 50.4936C71.7612 50.2643 71.6589 50.0386 71.5037 49.8199C71.0064 49.1003 70.1705 48.7088 69.4792 48.7547C69.1264 49.2661 69.1758 50.0386 69.6837 50.7581C70.1387 51.4071 70.8336 51.8339 71.4791 51.8939L71.4226 52.1125L71.2639 52.7263C71.1687 53.0296 71.0734 53.3294 71.0734 53.3294C71.017 53.1001 70.9253 52.8674 70.7877 52.6416C70.3045 51.8903 69.4933 51.46 68.7984 51.4671C68.7102 51.5905 68.6467 51.7351 68.6079 51.8903C68.5656 52.0455 68.5409 52.2078 68.548 52.3806C68.5586 52.7263 68.6785 53.1072 68.9078 53.4776C69.324 54.1477 69.9941 54.6098 70.6361 54.705L70.569 54.9202C70.569 54.9202 70.4738 55.2235 70.3786 55.5233C70.3327 55.675 70.2833 55.8266 70.2375 55.936C70.1952 56.0453 70.167 56.1194 70.167 56.1194C70.1246 55.8866 70.0506 55.6503 69.9095 55.414C69.458 54.6345 68.682 54.1654 67.9836 54.1336C67.7861 54.3699 67.7085 54.6909 67.6979 55.0366C67.6909 55.3822 67.7861 55.7667 67.9942 56.1476C68.3716 56.8389 69.0136 57.3363 69.652 57.4668L69.5709 57.6784C69.5709 57.6784 69.458 57.9747 69.3451 58.271C69.2887 58.4191 69.2358 58.5673 69.1864 58.6766C69.137 58.7859 69.1053 58.8565 69.1053 58.8565C69.0806 58.6237 69.0065 58.3768 68.8831 58.1334C68.4774 57.3327 67.7297 56.8213 67.0348 56.7508C66.8267 56.9765 66.7209 57.2834 66.7033 57.6361C66.6751 57.9782 66.7491 58.3662 66.9361 58.7612C67.2747 59.4702 67.8849 60.0063 68.5127 60.1721L68.421 60.3767C68.421 60.3767 68.2905 60.6659 68.16 60.9551C68.0365 61.2479 67.8849 61.5265 67.8849 61.5265C67.8743 61.2938 67.8143 61.0433 67.705 60.7929C67.3487 59.9675 66.6292 59.4173 65.9414 59.3044C65.7227 59.5161 65.5957 59.8194 65.5605 60.1651C65.5111 60.5072 65.5605 60.8952 65.7263 61.3008C66.0225 62.0309 66.601 62.5988 67.2182 62.8034L67.1124 63.0044C67.1124 63.0044 66.9643 63.2866 66.8197 63.5652C66.7491 63.7063 66.668 63.8439 66.608 63.9462C66.5481 64.0485 66.5058 64.1155 66.5058 64.1155C66.5058 63.8792 66.474 63.6358 66.3752 63.3748C66.0684 62.5318 65.3806 61.9357 64.7034 61.7805C64.4671 61.9745 64.3365 62.2778 64.266 62.6094C64.199 62.948 64.2272 63.3395 64.3648 63.7522C64.6152 64.4999 65.1619 65.1031 65.7615 65.3465L65.6451 65.5405C65.6451 65.5405 65.4864 65.8156 65.3171 66.0801C65.1407 66.3411 64.9609 66.6057 64.9609 66.6057C64.975 66.3693 64.9538 66.1189 64.8833 65.8614C64.6364 65.0043 63.9803 64.3624 63.3137 64.1719C63.1937 64.2636 63.0915 64.38 63.0139 64.5176C62.9292 64.6481 62.8622 64.7998 62.8163 64.9655C62.7317 65.2971 62.7352 65.6957 62.8516 66.1189C63.0597 66.8808 63.5641 67.5192 64.1496 67.8014L64.0226 67.9883C64.0226 67.9883 63.9803 68.0553 63.9098 68.1506C63.8392 68.2458 63.7405 68.3728 63.6452 68.4962C63.4548 68.7467 63.2608 69.0006 63.2608 69.0006C63.2855 68.7643 63.2819 68.5103 63.2255 68.2493C63.0527 67.3922 62.4354 66.708 61.7829 66.4716C61.2644 66.7961 61.014 67.5157 61.1974 68.3798C61.3667 69.1629 61.8146 69.8189 62.3825 70.1399L62.2379 70.3127L61.4196 71.2792C61.4584 71.0428 61.4654 70.7889 61.4266 70.5243C61.2997 69.6461 60.7424 68.9371 60.1004 68.6549C59.5608 68.9406 59.2856 69.6637 59.402 70.5279C59.5008 71.3003 59.9135 71.9952 60.4567 72.3549L60.3015 72.5207C60.3015 72.5207 60.0863 72.7535 59.8676 72.9828C59.7583 73.0992 59.6525 73.2156 59.5713 73.3002C59.4867 73.3813 59.4303 73.4378 59.4303 73.4378C59.4937 73.212 59.5114 72.951 59.4867 72.683C59.4091 71.7941 58.8977 71.0464 58.2804 70.7219C58.0053 70.8524 57.7901 71.0922 57.649 71.4097C57.4974 71.7165 57.4233 72.1045 57.4515 72.5384C57.5044 73.3214 57.8713 74.048 58.3897 74.4395L58.2275 74.5982C58.2275 74.5982 58.1711 74.6547 58.0864 74.7358C58.0018 74.8204 57.8889 74.9298 57.7654 75.0321C57.5256 75.2402 57.2893 75.4483 57.2893 75.4483C57.3633 75.2225 57.4057 74.9756 57.4057 74.7076C57.3986 73.8258 56.9224 73.0286 56.3334 72.6724C55.7796 72.9052 55.3775 73.5471 55.3881 74.4324C55.3952 75.2296 55.7126 75.9703 56.2064 76.3971L56.0301 76.5382L55.0389 77.3247C55.1236 77.099 55.1836 76.8521 55.1977 76.584C55.2435 75.6987 54.8379 74.8945 54.2665 74.4889C53.6775 74.6617 53.2683 75.3178 53.2083 76.1854C53.1519 76.9649 53.4235 77.7268 53.8856 78.1853L53.7021 78.3158C53.7021 78.3158 53.4447 78.4993 53.1872 78.6862C52.9332 78.8767 52.6652 79.046 52.6652 79.046C52.7674 78.8343 52.845 78.5945 52.8733 78.3229C52.972 77.4341 52.6158 76.6016 52.0726 76.1643C51.7763 76.2348 51.5224 76.4359 51.3143 76.7145C51.1061 76.9896 50.9615 77.3565 50.9051 77.7903C50.8063 78.5733 51.0286 79.3564 51.4624 79.8396L51.2719 79.963L50.1856 80.6156C50.2984 80.4039 50.3866 80.1676 50.436 79.9031C50.5982 79.0319 50.2984 78.1818 49.7799 77.7056C49.1733 77.8009 48.6795 78.4005 48.5102 79.2541C48.355 80.023 48.5278 80.8166 48.9299 81.328L48.7324 81.4374C48.7324 81.4374 48.4537 81.5891 48.1751 81.7407C47.8929 81.8818 47.6107 82.0264 47.6107 82.0264C47.7377 81.8254 47.8435 81.5961 47.9105 81.3386C48.1222 80.4745 47.8753 79.5962 47.392 79.0954C46.7959 79.1835 46.2457 79.702 46.0306 80.5627C45.8295 81.3245 45.9494 82.1181 46.3163 82.6578L46.1117 82.753C46.1117 82.753 45.8225 82.8871 45.5368 83.0176L44.9548 83.2645C45.0959 83.0705 45.2158 82.8518 45.2969 82.5978C45.5614 81.7443 45.371 80.8589 44.923 80.3263C44.3199 80.3687 43.745 80.8625 43.4734 81.7019C43.2229 82.4426 43.2899 83.2504 43.6215 83.8112L43.4099 83.8923C43.4099 83.8923 43.1171 84.0122 42.8173 84.111C42.521 84.2168 42.2212 84.3226 42.2212 84.3226C42.3729 84.1392 42.5069 83.924 42.6057 83.6736C42.9337 82.8553 42.7961 81.9453 42.387 81.388C41.7838 81.3774 41.1913 81.843 40.8597 82.6437C40.567 83.3667 40.5634 84.1709 40.8491 84.76L40.634 84.8235L40.0696 84.9787C39.918 85.0175 39.8263 85.1691 39.8615 85.3243C39.8968 85.476 40.0555 85.5677 40.2107 85.5289L40.7892 85.3702L41.0079 85.3032C41.0819 85.9486 41.5228 86.6364 42.253 87.0315C43.0607 87.4724 43.9672 87.4159 44.4927 86.975C44.4539 86.2626 43.9213 85.5395 43.1206 85.1127C42.8773 84.9857 42.6374 84.9046 42.4011 84.8587C42.4011 84.8587 42.7044 84.7529 43.0042 84.6436C43.3076 84.5413 43.6074 84.4214 43.6074 84.4214L43.8225 84.3402C43.9495 84.9787 44.4398 85.6241 45.1946 85.9733C46.02 86.3437 46.9159 86.2414 47.4062 85.7617C47.3215 85.0598 46.7325 84.3579 45.9142 84.0016C45.6637 83.8923 45.4133 83.8218 45.177 83.79C45.177 83.79 45.4733 83.663 45.766 83.5396C46.0588 83.4055 46.348 83.2715 46.348 83.2715L46.5561 83.1763C46.7254 83.8006 47.2615 84.4178 48.034 84.7141C48.8805 85.0245 49.7694 84.8799 50.2208 84.3614C50.0868 83.663 49.4625 83.007 48.6195 82.7001C48.362 82.6049 48.1116 82.5555 47.8682 82.5379C47.8682 82.5379 48.1539 82.3932 48.4396 82.2486C48.7218 82.097 49.004 81.9418 49.004 81.9418L49.205 81.8324C49.4166 82.4497 49.9845 83.0211 50.7781 83.2715C51.6529 83.5502 52.5064 83.3033 52.9403 82.7848C52.7674 82.104 52.0938 81.4762 51.2296 81.2187C50.9686 81.1411 50.7146 81.1094 50.4748 81.1094L51.5753 80.4498L51.7693 80.3263C52.0197 80.9295 52.6228 81.4621 53.4235 81.6561C53.8679 81.7619 54.3018 81.7478 54.6756 81.642C55.0495 81.5291 55.3529 81.3104 55.5504 81.0318C55.3317 80.3581 54.6227 79.7831 53.7515 79.5892C53.4905 79.5327 53.233 79.5151 52.9897 79.5257C52.9897 79.5257 53.2612 79.3564 53.5187 79.1624C53.7797 78.9754 54.0407 78.7885 54.0407 78.7885L54.2277 78.6545C54.5169 79.2364 55.1553 79.7373 55.9736 79.8854C56.8731 80.0442 57.6914 79.695 58.0547 79.1236C57.7972 78.4675 57.0459 77.9349 56.157 77.7903C55.889 77.748 55.6315 77.748 55.3952 77.7797L56.4004 76.9826L56.5803 76.8415C56.9048 77.4058 57.575 77.8644 58.3897 77.942C59.2892 78.0302 60.1145 77.6668 60.4214 77.0496C60.111 76.4041 59.3456 75.9385 58.4462 75.8504C58.1711 75.8221 57.9136 75.8363 57.6773 75.8821C57.6773 75.8821 57.9171 75.6705 58.1605 75.4588C58.2839 75.3566 58.3968 75.2437 58.485 75.159C58.5732 75.0744 58.6296 75.0215 58.6296 75.0215L58.7954 74.8628C59.1587 75.4059 59.8535 75.8116 60.6789 75.8468C61.1374 75.868 61.5642 75.7692 61.9134 75.5929C62.252 75.4024 62.5095 75.1308 62.6506 74.8204C62.3049 74.2032 61.4937 73.7764 60.6013 73.7588C60.3297 73.7517 60.0828 73.794 59.8429 73.8505C59.8429 73.8505 59.8994 73.794 59.9876 73.7094C60.0687 73.6212 60.178 73.5048 60.2874 73.3884C60.506 73.1556 60.7247 72.9193 60.7247 72.9193L60.8799 72.7535C61.275 73.2685 62.0016 73.6318 62.834 73.6177C63.7475 73.5965 64.4776 73.0886 64.7245 72.4572C64.3401 71.8682 63.5041 71.4908 62.6047 71.5261C62.3331 71.5366 62.0827 71.5895 61.8534 71.6671L62.6823 70.6866L62.8304 70.5102C63.2572 70.997 64.0156 71.3215 64.8268 71.2368C65.7263 71.1486 66.4458 70.6125 66.6468 69.9635C66.2201 69.3921 65.3735 69.0853 64.4671 69.1699C64.1955 69.1981 63.945 69.2616 63.7228 69.3533C63.7228 69.3533 63.9168 69.0994 64.1108 68.8419C64.206 68.7149 64.3048 68.5879 64.3789 68.4892C64.4494 68.3939 64.4953 68.3234 64.4953 68.3234L64.6222 68.1329C65.0843 68.595 65.8462 68.856 66.6574 68.7255C67.1089 68.6549 67.5039 68.4751 67.8073 68.2317C67.9589 68.1082 68.0895 67.9707 68.1917 67.8225C68.287 67.6709 68.354 67.5051 68.3893 67.3393C67.9237 66.7997 67.0595 66.5422 66.1777 66.6938C65.9061 66.7362 65.6592 66.8173 65.4406 66.9231L65.8003 66.394C65.9732 66.1224 66.1319 65.8473 66.1319 65.8473L66.2483 65.6498C66.7385 66.0801 67.5145 66.2953 68.3222 66.1154C68.7667 66.0166 69.1547 65.8156 69.4439 65.5546C69.7402 65.2971 69.9024 64.9585 69.9589 64.6234C69.465 64.1155 68.5762 63.9074 67.7156 64.119C67.4581 64.186 67.2112 64.2777 66.9996 64.3941C66.9996 64.3941 67.0419 64.3271 67.1018 64.2213C67.1653 64.119 67.2465 63.9815 67.317 63.8368C67.4651 63.5547 67.6133 63.269 67.6133 63.269L67.7191 63.0679C68.2341 63.4665 69.0242 63.6323 69.8213 63.4065C70.2622 63.2831 70.6361 63.0573 70.9112 62.7822C71.1757 62.5 71.3274 62.1614 71.3591 61.8228C70.8371 61.3467 69.9377 61.1915 69.0876 61.456C68.8337 61.5371 68.6079 61.65 68.3963 61.777C68.3963 61.777 68.548 61.4948 68.675 61.1985C68.8055 60.9058 68.9395 60.613 68.9395 60.613L69.0347 60.4049C69.5744 60.7717 70.3715 60.8917 71.1546 60.6201C71.5884 60.4684 71.9482 60.225 72.2057 59.9323C72.449 59.636 72.5831 59.2868 72.5972 58.9482C72.0469 58.5002 71.1404 58.4015 70.308 58.7119C70.0576 58.8071 69.8389 58.9341 69.6379 59.0752C69.6379 59.0752 69.6696 59.0011 69.719 58.8918C69.7684 58.7824 69.8213 58.6307 69.8777 58.4826C69.9906 58.1828 70.107 57.883 70.107 57.883L70.1881 57.6678C70.7454 58.0029 71.5531 58.0735 72.315 57.7595C72.7383 57.5867 73.0804 57.3186 73.3238 57.0153C73.5671 56.7084 73.6659 56.3522 73.6624 56.0171C73.0874 55.6009 72.1774 55.5515 71.3662 55.9113C71.1263 56.0206 70.9006 56.1582 70.7101 56.3099C70.7101 56.3099 70.7384 56.2358 70.7807 56.1229C70.8265 56.0136 70.8794 55.8584 70.9253 55.7067C71.0205 55.3999 71.1193 55.0965 71.1193 55.0965L71.1898 54.8778C71.7683 55.1812 72.5725 55.2094 73.3167 54.8496C73.7259 54.6521 74.0539 54.3699 74.2761 54.0525C74.3854 53.8938 74.4736 53.728 74.523 53.5552C74.5689 53.3823 74.5865 53.2095 74.5689 53.0402C73.9692 52.6557 73.0663 52.6557 72.2691 53.0543C72.0187 53.1742 71.8071 53.3224 71.6272 53.4846C71.6272 53.4846 71.7224 53.1777 71.8212 52.8744L71.9799 52.2536L72.0364 52.0314C72.6289 52.303 73.4366 52.2854 74.1527 51.8903C74.9463 51.453 75.3942 50.6911 75.3237 50.0245C74.7064 49.6717 73.807 49.7176 73.0063 50.1514C72.7665 50.2855 72.5619 50.4442 72.3926 50.6135L72.5478 49.9927C72.5866 49.8375 72.6254 49.6823 72.6536 49.5659C72.6818 49.4495 72.6959 49.3719 72.6959 49.3719L72.7383 49.1462C73.3449 49.3896 74.1456 49.3296 74.8405 48.8993C75.6058 48.4231 76.0044 47.6401 75.9021 46.9805C75.2778 46.6595 74.3643 46.7442 73.5954 47.2204C73.3626 47.365 73.1721 47.5343 73.0098 47.7142L73.2497 46.455L73.292 46.2292C73.8987 46.4409 74.7311 46.3492 75.3872 45.8836C76.1243 45.3721 76.4735 44.575 76.336 43.9189C75.694 43.6297 74.7875 43.7532 74.0504 44.2646C73.8282 44.4198 73.6447 44.5962 73.4966 44.7866L73.6624 43.5168L73.6906 43.2911C74.3149 43.4745 75.1156 43.344 75.7822 42.8537C75.9656 42.7197 76.1279 42.568 76.2619 42.4058C76.3853 42.2435 76.4841 42.0707 76.5582 41.8943C76.6993 41.5416 76.731 41.1783 76.6428 40.8538C75.9868 40.5928 75.0909 40.7551 74.3819 41.2947C74.1668 41.4605 73.9975 41.6439 73.8599 41.8379L73.9551 40.5611L73.9728 40.3318C74.6041 40.4905 75.3942 40.3248 76.0362 39.8063C76.3889 39.5206 76.6428 39.1749 76.7839 38.8187C76.8545 38.6423 76.8968 38.4589 76.9144 38.2861C76.9215 38.1097 76.8968 37.9404 76.8439 37.7817C76.1702 37.5454 75.2955 37.7464 74.6041 38.3143V38.3354Z" fill="#2C6AB1"/>
<path d="M68.4016 13.1853L68.0665 10.2083L65.0719 10.0602C60.1198 9.81682 50.6846 8.70577 43.1435 4.00053C42.5368 3.62312 41.2494 2.68842 40.5299 2.15229L38.4242 0.582703L36.3184 2.15229C35.412 2.82598 34.2515 3.66192 33.7013 4.00405C26.1602 8.70577 16.725 9.81682 11.7729 10.0602L8.77832 10.2083L8.44324 13.1853C5.86841 36.1083 13.4765 62.9747 20.3122 69.9374C27.9873 77.7571 36.6465 79.9792 37.6094 80.2085L38.4206 80.4025L39.2319 80.2085C40.1948 79.9792 48.8505 77.7571 56.5291 69.9374C63.3648 62.9747 70.9729 36.1083 68.398 13.1853H68.4016ZM38.8298 78.4943L38.4242 78.5895L38.0185 78.4943C37.1085 78.2791 28.9043 76.1699 21.5749 68.7029C15.0073 62.0154 7.70254 35.618 10.1998 13.3828L10.3655 11.8943L11.8611 11.8203C16.9825 11.5698 26.7528 10.4129 34.6325 5.49605C35.2673 5.101 36.5054 4.2051 37.3695 3.56316L38.4242 2.78013L39.4753 3.56668C40.1137 4.04285 41.5069 5.0622 42.2088 5.49957C50.0885 10.4129 59.8588 11.5698 64.9802 11.8238L66.4757 11.8979L66.6415 13.3863C69.1387 35.6216 61.834 62.0189 55.2664 68.7064C47.9369 76.1734 39.7327 78.2826 38.8227 78.4978L38.8298 78.4943Z" fill="#2C6AB1"/>
<path d="M21.8596 50.4974C21.8596 50.4974 21.8455 50.4868 21.8349 50.4833C21.8349 50.4833 21.7432 54.7793 25.4361 56.7863C29.1326 58.7933 29.1326 62.6132 29.1326 62.6132C29.1326 62.6132 21.2247 58.4123 17.4012 50.1023C13.5778 41.7958 13.405 42.3672 13.405 42.3672C13.1722 43.1362 13.5919 44.6599 13.6871 45.4288C14.5866 52.6172 16.9956 59.2024 21.6303 64.5355C26.0745 69.6464 31.4993 72.7926 36.4867 75.1099C36.462 75.0993 37.1781 72.0766 37.2027 71.8755C37.8059 67.3537 36.7442 61.8266 33.6862 58.5464C30.4941 55.1215 25.7183 52.8923 21.856 50.5009L21.8596 50.4974Z" fill="#2C6AB1"/>
<path d="M59.4242 50.0968C55.6008 58.4032 47.6929 62.6076 47.6929 62.6076C47.6929 62.6076 47.6929 58.7877 51.3893 56.7807C55.0858 54.7738 54.9906 50.4777 54.9906 50.4777C54.9835 50.4812 54.9765 50.4883 54.9659 50.4918C51.1036 52.8867 46.3278 55.1159 43.1358 58.5373C40.0777 61.8175 39.0125 67.3446 39.6192 71.8664C39.6474 72.0639 40.3634 75.0867 40.3352 75.1008C45.3226 72.7835 50.7474 69.6408 55.1916 64.5264C59.8298 59.1933 62.2354 52.6081 63.1348 45.4197C63.23 44.6508 63.6498 43.1271 63.417 42.3582C63.417 42.3582 63.2441 41.7867 59.4207 50.0932L59.4242 50.0968Z" fill="#2C6AB1"/>
<path d="M41.3249 56.6637C42.317 55.7693 43.4929 54.9929 44.7438 54.2823C46.7302 53.1563 47.6928 50.9678 47.0662 48.8952C47.0571 48.8634 47.0458 48.8316 47.0367 48.7998C45.9175 49.9122 44.2353 51.1608 41.7176 52.4548C41.7131 52.4571 41.7086 52.4593 41.7018 52.4616C41.5111 52.5797 41.3158 52.6954 41.107 52.8112C39.8788 53.49 39.1183 54.3776 38.6711 55.3425C38.2238 54.3799 37.4633 53.49 36.2352 52.8112C36.0263 52.6954 35.8311 52.5797 35.6404 52.4616C35.6358 52.4593 35.6313 52.4571 35.6245 52.4548C33.1046 51.1608 31.4246 49.9122 30.3055 48.7998C30.2964 48.8316 30.285 48.8634 30.2759 48.8952C29.6494 50.9678 30.6142 53.1563 32.5983 54.2823C33.8492 54.9929 35.0252 55.7693 36.0172 56.6637C37.1046 57.6444 37.8879 58.9112 38.3873 60.2869C38.4645 60.6184 38.5507 60.9226 38.6347 61.1927C38.6665 61.1927 38.6347 61.1927 38.6643 61.1927C38.6643 61.1882 38.6665 61.1836 38.6688 61.1791C38.6688 61.1836 38.6711 61.1882 38.6733 61.1927C38.7051 61.1927 38.6733 61.1927 38.7028 61.1927C38.7868 60.9226 38.8731 60.6161 38.9503 60.2869C39.452 58.9112 40.233 57.6422 41.3204 56.6637H41.3249Z" fill="#2C6AB1"/>
<path d="M42.0526 49.1726C42.8059 47.354 41.9423 45.2691 40.1237 44.5158C38.3051 43.7625 36.2202 44.6261 35.4669 46.4447C34.7136 48.2633 35.5772 50.3483 37.3958 51.1016C39.2144 51.8549 41.2993 50.9912 42.0526 49.1726Z" fill="#2C6AB1"/>
<path d="M25.842 41.4581L24.1644 31.9518L22.3004 17.2602H18.1996V14.3456H24.5202L26.0623 23.225L28.1974 38.5096H32.2812V41.4581H25.842ZM18.1996 41.4581V18.6667H20.9956L21.2498 31.1215L21.4701 41.4581H18.1996ZM29.4513 37.1032L29.1802 24.462L28.9768 14.3456H32.2812V37.1032H29.4513ZM36.204 41.4581V14.3456H39.4914V41.4581H36.204ZM41.4062 29.2406V26.309H45.8798V29.2406H41.4062ZM41.4062 17.2772V14.3456H46.2187V17.2772H41.4062ZM53.3744 41.6784C51.6686 41.5655 50.4372 41.0966 49.6803 40.272C48.9234 39.436 48.528 38.1425 48.4942 36.3915C48.4716 34.7873 48.4546 33.2905 48.4433 31.901C48.432 30.5115 48.4264 29.1615 48.4264 27.851C48.4264 26.5293 48.432 25.185 48.4433 23.818C48.4546 22.4398 48.4716 20.9712 48.4942 19.4123C48.528 17.6612 48.9234 16.3734 49.6803 15.5487C50.4372 14.7128 51.6686 14.2383 53.3744 14.1253V16.9382C52.8209 17.0512 52.4255 17.2885 52.1882 17.65C51.951 18.0115 51.8267 18.5537 51.8154 19.2767C51.7702 20.8583 51.7364 22.3438 51.7138 23.7333C51.6912 25.1228 51.6799 26.4841 51.6799 27.8171C51.6799 29.1502 51.6912 30.5227 51.7138 31.9349C51.7364 33.347 51.7702 34.8777 51.8154 36.527C51.8267 37.2613 51.951 37.8092 52.1882 38.1707C52.4255 38.5209 52.8209 38.7525 53.3744 38.8655V41.6784ZM55.3231 41.6784V38.8486C55.8767 38.7469 56.2608 38.5153 56.4754 38.1538C56.7013 37.7923 56.82 37.25 56.8313 36.527C56.8877 34.9116 56.9273 33.4035 56.9499 32.0026C56.9725 30.6018 56.9838 29.2406 56.9838 27.9188C56.9838 26.5858 56.9725 25.2189 56.9499 23.818C56.9273 22.4059 56.8877 20.8922 56.8313 19.2767C56.82 18.5537 56.7013 18.0115 56.4754 17.65C56.2608 17.2885 55.8767 17.0569 55.3231 16.9552V14.1253C56.9612 14.2496 58.153 14.7297 58.8986 15.5657C59.6442 16.4016 60.0396 17.6838 60.0848 19.4123C60.1299 20.9712 60.1582 22.4398 60.1695 23.818C60.1921 25.185 60.2034 26.5293 60.2034 27.851C60.2034 29.1728 60.1921 30.5284 60.1695 31.9179C60.1582 33.2961 60.1299 34.7873 60.0848 36.3915C60.0396 38.1312 59.6442 39.4134 58.8986 40.2381C58.153 41.0627 56.9612 41.5429 55.3231 41.6784Z" fill="#2C6AB1"/>
</svg>
