<svg width="68" height="78" viewBox="0 0 68 78" fill="none" xmlns="http://www.w3.org/2000/svg">
<path d="M32.5974 75.3408L32.0988 75.2037L31.9617 75.6867L32.4727 75.8269C32.6129 75.8612 32.75 75.7801 32.7812 75.6462C32.8124 75.5122 32.7313 75.375 32.5974 75.3408Z" fill="#2C6AB1"/>
<path d="M31.8945 73.2826C31.6047 72.5753 31.0781 72.164 30.5452 72.1733C30.1837 72.6656 30.0622 73.4696 30.352 74.1925C30.4393 74.4138 30.5577 74.6007 30.6917 74.7659C30.6917 74.7659 30.4299 74.6724 30.1651 74.5789C29.9002 74.4886 29.6415 74.3857 29.6415 74.3857L29.4546 74.3141C29.7475 73.8186 29.8036 73.105 29.5855 72.4506C29.3455 71.709 28.8376 71.2728 28.3047 71.2354C27.9059 71.7059 27.7376 72.488 27.9744 73.2421C28.0461 73.4665 28.1521 73.6628 28.2767 73.8342C28.2767 73.8342 28.0181 73.7251 27.7625 73.6161C27.507 73.4976 27.2546 73.3823 27.2546 73.3823L27.0739 73.2982C27.4011 72.8214 27.5039 72.1203 27.3263 71.4473C27.1362 70.6869 26.6501 70.2257 26.1235 70.151C25.6966 70.5934 25.4753 71.3694 25.6654 72.1328C25.7246 72.3603 25.815 72.5628 25.9303 72.7404C25.9303 72.7404 25.681 72.6158 25.4317 72.488C25.1855 72.354 24.9394 72.22 24.9394 72.22L24.7649 72.1234C25.1201 71.6716 25.2697 70.9705 25.1357 70.2912C24.983 69.5371 24.5498 69.0105 24.0139 68.9232C23.5558 69.3439 23.2941 70.0949 23.4343 70.8645C23.4779 71.0982 23.5558 71.307 23.6555 71.494L22.6958 70.9175L22.5275 70.8085C22.9108 70.3815 23.1071 69.6898 23.0198 68.998C22.97 68.6147 22.8422 68.2906 22.6584 68.0476C22.4776 67.8014 22.2502 67.6238 21.9884 67.5615C21.5085 67.9479 21.1938 68.6833 21.2811 69.4685C21.306 69.7085 21.3714 69.9204 21.4649 70.1073C21.4649 70.1073 21.2281 69.9578 21.0037 69.7895C20.7763 69.6275 20.5488 69.4623 20.5488 69.4623L20.3867 69.347C20.7949 68.945 21.0349 68.2688 20.985 67.5802C20.9321 66.8105 20.5706 66.234 20.0502 66.0813C19.5423 66.4397 19.1839 67.1502 19.2276 67.9323C19.24 68.1691 19.2899 68.3872 19.3678 68.5867L18.4922 67.8918L18.3364 67.7671C18.7695 67.3901 19.0499 66.7357 19.0593 66.0315C19.0686 65.2493 18.7103 64.6853 18.2242 64.4765C17.7038 64.7913 17.2831 65.4955 17.2769 66.2745C17.2769 66.5082 17.3143 66.7295 17.3797 66.9289C17.3797 66.9289 17.1678 66.7451 16.959 66.5612C16.8531 66.4708 16.7503 66.3742 16.6755 66.2995C16.6007 66.2278 16.5508 66.1779 16.5508 66.1779L16.4075 66.0377C16.8656 65.6918 17.1927 65.053 17.2364 64.3581C17.2613 63.9748 17.1959 63.6321 17.0619 63.361C16.9403 63.0805 16.7471 62.8686 16.5041 62.7533C15.9557 63.04 15.5038 63.6975 15.4384 64.4859C15.4197 64.7227 15.4321 64.9533 15.4882 65.1527C15.4882 65.1527 15.4384 65.1029 15.3636 65.0312C15.2919 64.9533 15.1953 64.8536 15.1018 64.7508C14.9118 64.5451 14.7186 64.3426 14.7186 64.3426L14.5815 64.1961C15.0613 63.8814 15.429 63.2675 15.5132 62.582C15.616 61.8185 15.3729 61.1797 14.8962 60.9273C14.3291 61.1766 13.8367 61.8029 13.7245 62.5788C13.6903 62.8125 13.6965 63.0369 13.7308 63.2457L13.0078 62.3919L12.8801 62.2392C13.3818 61.9556 13.7775 61.3729 13.9271 60.6842C14.086 59.9208 13.8679 59.2851 13.4098 58.9984C12.8333 59.2072 12.288 59.8117 12.1353 60.569C12.0886 60.7995 12.0823 61.0208 12.1042 61.2327C12.1042 61.2327 11.9359 61.0114 11.7645 60.7871C11.6804 60.6749 11.5962 60.5658 11.5308 60.4817C11.4685 60.3976 11.4311 60.3384 11.4311 60.3384L11.3189 60.1732C11.8362 59.9239 12.2818 59.3599 12.4656 58.6868C12.5685 58.3129 12.5716 57.9639 12.4968 57.6679C12.4594 57.5214 12.4002 57.3874 12.3223 57.2721C12.2506 57.1506 12.1634 57.0478 12.0574 56.9667C11.4685 57.1381 10.8889 57.7053 10.6708 58.4594C10.6084 58.6868 10.5897 58.905 10.6022 59.1169C10.6022 59.1169 10.4464 58.8863 10.2875 58.6526C10.1379 58.4157 9.99768 58.1758 9.99768 58.1758L9.89485 58.0044C10.4277 57.7894 10.9076 57.2565 11.1288 56.5959C11.2503 56.2313 11.2784 55.8823 11.2161 55.5863C11.1537 55.2903 11.0385 55.0254 10.8297 54.854C10.2283 54.988 9.62374 55.5146 9.35264 56.2625C9.26539 56.49 9.24047 56.705 9.23735 56.9169C9.23735 56.9169 9.19996 56.8577 9.14698 56.7673C9.09089 56.6769 9.02234 56.5585 8.96002 56.4308C8.82914 56.1815 8.70138 55.9353 8.70138 55.9353L8.6079 55.7577C9.15321 55.5739 9.66425 55.0722 9.92601 54.4302C10.0693 54.0719 10.1161 53.7291 10.0725 53.4269C10.0413 53.1215 9.92912 52.8535 9.73592 52.6665C9.12829 52.7662 8.4926 53.2524 8.17788 53.9815C8.08128 54.2028 8.0283 54.424 8.01896 54.6297C8.01896 54.6297 7.88496 54.3835 7.7759 54.1249C7.6606 53.8693 7.54531 53.6138 7.54531 53.6138L7.46429 53.4331C8.01896 53.2835 8.55804 52.813 8.85719 52.1867C9.02234 51.8377 9.08778 51.4949 9.06285 51.1926C9.05038 50.8841 8.95378 50.6099 8.76994 50.4105C8.15606 50.4728 7.49545 50.9246 7.1371 51.632C7.02804 51.847 6.95948 52.0651 6.94079 52.2708C6.94079 52.2708 6.91274 52.2085 6.86912 52.1119C6.82549 52.0153 6.77875 51.8844 6.72889 51.7535C6.62918 51.4918 6.52946 51.23 6.52946 51.23L6.45779 51.043C7.01869 50.9246 7.58582 50.4884 7.92236 49.8776C8.10621 49.538 8.19034 49.2014 8.18411 48.8961C8.17476 48.5907 8.10621 48.3071 7.9317 48.0983C7.31783 48.1264 6.62918 48.5408 6.23032 49.2295C6.10567 49.4383 6.04023 49.647 6.00284 49.8527C6.00284 49.8527 5.97791 49.7873 5.94052 49.6907C5.90001 49.5941 5.85639 49.4601 5.81588 49.3261C5.73174 49.0581 5.64761 48.7932 5.64761 48.7932L5.5884 48.6031C6.15553 48.519 6.74759 48.1108 7.11529 47.5187C7.31783 47.1916 7.42378 46.855 7.43313 46.5496C7.43936 46.3969 7.41755 46.2505 7.38016 46.1165C7.34588 45.9794 7.29291 45.8547 7.21189 45.7426C6.59802 45.7363 5.88443 46.1165 5.45441 46.7802C5.32977 46.9797 5.24875 47.1853 5.202 47.3879C5.202 47.3879 5.11787 47.1199 5.03374 46.855L4.89351 46.3128L4.84365 46.1196C5.4139 46.0635 6.02777 45.6896 6.42975 45.1162C6.87535 44.4774 6.92209 43.795 6.61048 43.3463C5.99973 43.3089 5.26121 43.6517 4.82184 44.2873C4.68785 44.4805 4.59437 44.6831 4.53204 44.8825C4.53204 44.8825 4.46349 44.6114 4.39494 44.3403C4.36066 44.2032 4.32638 44.0692 4.30145 43.9664C4.27652 43.8636 4.26406 43.795 4.26406 43.795L4.22667 43.5987C4.80003 43.5738 5.4326 43.231 5.86573 42.6732C6.34561 42.0562 6.43598 41.3707 6.14618 40.9064C5.5292 40.8409 4.79068 41.1463 4.3108 41.7633C4.16434 41.9503 4.06151 42.1466 3.98673 42.346L3.77795 41.246L3.74056 41.0497C4.32327 41.0497 4.94337 40.7443 5.4139 40.2053C5.92806 39.6101 6.05582 38.9245 5.79406 38.4447C5.18019 38.3481 4.42921 38.6223 3.91506 39.2175C3.75925 39.3982 3.64396 39.5914 3.55982 39.7846L3.41337 38.6721L3.38844 38.4727C3.96491 38.5008 4.6193 38.2172 5.08671 37.7062C5.21759 37.5628 5.32042 37.4164 5.40144 37.2637C5.4918 37.111 5.55412 36.9583 5.59463 36.8056C5.67565 36.5002 5.65695 36.2073 5.54166 35.9611C4.93714 35.8396 4.17058 36.0827 3.62526 36.6529C3.46011 36.8274 3.33235 37.0144 3.23886 37.2045L3.15785 36.0858L3.14226 35.8864C3.71563 35.9393 4.38559 35.6838 4.88105 35.1915C5.15526 34.9172 5.33288 34.6119 5.4139 34.3127C5.45441 34.1632 5.46999 34.0136 5.46064 33.8734C5.46064 33.73 5.4326 33.5929 5.38274 33.4651C4.78756 33.3187 4.00231 33.5306 3.43829 34.079C3.27314 34.2442 3.14538 34.428 3.0519 34.615C3.0519 34.615 3.03009 34.3345 3.01139 34.0572C2.99892 33.7768 2.99581 33.4963 2.99581 33.4963V33.2969C3.55982 33.3717 4.24225 33.1473 4.76575 32.6705C5.34223 32.1439 5.54789 31.474 5.33911 30.9598C4.74082 30.7884 3.96491 30.9723 3.38532 31.4989C3.21082 31.6578 3.07371 31.8354 2.96776 32.0193L2.94907 30.8975V30.6981C3.5162 30.7947 4.18927 30.5952 4.72524 30.1372C5.32976 29.6292 5.5697 28.9655 5.39209 28.4451C4.80314 28.255 4.01789 28.4108 3.41025 28.9156C3.2264 29.0683 3.07994 29.2428 2.96776 29.4205L3.00827 28.2987L3.01451 28.0992C3.57852 28.2145 4.27029 28.04 4.81561 27.6007C5.42325 27.1145 5.64449 26.457 5.50738 25.9273C4.92779 25.7154 4.13318 25.8463 3.50373 26.3293C3.31988 26.4757 3.17654 26.644 3.06125 26.8185C3.06125 26.8185 3.07371 26.5381 3.08306 26.2576C3.10799 25.9772 3.13292 25.6998 3.13292 25.6998L2.63434 25.6656C2.63434 25.6656 2.60941 25.946 2.58448 26.2265C2.57202 26.51 2.56267 26.7905 2.56267 26.7905C2.45984 26.6004 2.32896 26.4165 2.15758 26.2451C1.61849 25.6811 0.858166 25.4256 0.247412 25.5658C-0.0112244 26.0987 0.194438 26.8466 0.758451 27.4137C1.26949 27.9278 1.9488 28.1522 2.51905 28.0774L2.51281 28.28L2.4723 29.408C2.36947 29.2241 2.2386 29.0434 2.0641 28.8783C1.49697 28.3298 0.724174 28.0992 0.122768 28.2644C-0.095359 28.8097 0.0947229 29.5482 0.661852 30.0935C1.18536 30.589 1.88648 30.7915 2.44738 30.6949V30.8975L2.4723 32.0286C2.36012 31.8479 2.21678 31.6734 2.03605 31.5114C1.44088 30.9847 0.65562 30.7822 0.0635619 30.966C-0.123404 31.5207 0.104071 32.253 0.699246 32.7796C1.23833 33.2564 1.92699 33.4309 2.491 33.3156V33.5181C2.491 33.5181 2.49412 33.8017 2.5097 34.0821C2.53151 34.3626 2.55021 34.6461 2.55021 34.6461C2.42868 34.4685 2.27599 34.3003 2.08591 34.1476C1.47515 33.6428 0.702362 33.4683 0.107187 33.677C0.0604458 33.8173 0.0386331 33.97 0.0448653 34.1226C0.0573297 34.2784 0.0947229 34.4374 0.157045 34.5932C0.281689 34.9079 0.506048 35.2133 0.817657 35.4657C1.38167 35.9206 2.08279 36.0671 2.64057 35.93L2.65615 36.1325L2.73717 37.2606C2.61564 37.0892 2.46296 36.924 2.27599 36.7807C1.65277 36.3008 0.858166 36.1575 0.278573 36.3912C0.20067 36.6778 0.228715 36.9988 0.353359 37.3104C0.415681 37.4662 0.502931 37.6189 0.615111 37.7622C0.733523 37.9056 0.876863 38.0396 1.0389 38.158C1.63096 38.5911 2.33831 38.7064 2.88675 38.5444L2.91167 38.7438L3.05813 39.8656C2.92725 39.7005 2.76522 39.5415 2.5689 39.4044C1.91764 38.9526 1.1168 38.8435 0.549673 39.099C0.425029 39.6786 0.736639 40.3829 1.3879 40.8347C1.9675 41.2429 2.70601 41.3239 3.23886 41.1401L3.27626 41.3395L3.48815 42.452C3.34793 42.293 3.17654 42.1435 2.97088 42.0157C2.29469 41.595 1.4845 41.5234 0.932953 41.8038C0.842586 42.3865 1.19159 43.0783 1.8709 43.499C2.48165 43.8791 3.19212 43.929 3.72809 43.7171L3.76548 43.9165C3.76548 43.9165 3.77483 43.9882 3.80288 44.0879C3.82781 44.1908 3.86208 44.3279 3.89636 44.465C3.96491 44.7392 4.03347 45.0134 4.03347 45.0134C3.8839 44.8607 3.70316 44.7205 3.49127 44.6052C2.78391 44.2219 1.98931 44.1814 1.44399 44.493C1.38167 45.082 1.77741 45.755 2.47854 46.1414C3.11422 46.4904 3.82469 46.506 4.34819 46.2661L4.39805 46.4624L4.53828 47.0108L4.70966 47.5499C4.55074 47.4066 4.36377 47.2757 4.14253 47.1697C3.43829 46.8176 2.64057 46.8176 2.11084 47.1573C2.09837 47.3068 2.11084 47.4595 2.15135 47.6122C2.19497 47.7618 2.27287 47.9114 2.36947 48.0516C2.56579 48.332 2.85558 48.5813 3.21705 48.7558C3.87143 49.0706 4.58502 49.0487 5.09606 48.7808L5.15838 48.974C5.15838 48.974 5.24251 49.2451 5.32976 49.513C5.37027 49.6502 5.41702 49.781 5.45752 49.8807C5.49492 49.9805 5.51985 50.0459 5.51985 50.0459C5.35158 49.9119 5.15526 49.7935 4.94025 49.6938C4.22355 49.3759 3.4196 49.4227 2.91167 49.7873C2.90856 50.0864 2.99581 50.4011 3.21082 50.6691C3.42271 50.9402 3.72809 51.1739 4.10202 51.3266C4.7751 51.6039 5.48869 51.5416 5.98103 51.2456L6.0527 51.4357C6.0527 51.4357 6.15241 51.7005 6.25525 51.9654C6.30822 52.0963 6.35496 52.2303 6.39547 52.3269C6.4391 52.4235 6.46714 52.4889 6.46714 52.4889C6.28952 52.3643 6.09632 52.2521 5.87508 52.168C5.13968 51.8906 4.33885 51.981 3.85273 52.3767C3.86208 52.6759 3.98049 52.9844 4.19862 53.2461C4.4261 53.5048 4.74394 53.7198 5.12722 53.8538C5.81588 54.0937 6.52323 53.9878 6.99999 53.6637L7.08413 53.8475C7.08413 53.8475 7.19942 54.1062 7.31783 54.3648C7.43001 54.6266 7.56401 54.8758 7.56401 54.8758C7.37704 54.7637 7.17761 54.664 6.95325 54.5923C6.20227 54.3586 5.40767 54.4957 4.94648 54.9164C4.97453 55.2155 5.11164 55.5146 5.34223 55.7639C5.58528 56.0101 5.91559 56.2064 6.3051 56.3155C7.00934 56.5149 7.70735 56.3685 8.1623 56.0163L8.25578 56.194C8.25578 56.194 8.38666 56.4432 8.51753 56.6956C8.57985 56.8234 8.65152 56.9449 8.70761 57.0353C8.7637 57.1257 8.79798 57.188 8.79798 57.188C8.61101 57.0852 8.39289 57.0041 8.16541 56.9449C7.40509 56.758 6.61983 56.9418 6.18358 57.3905C6.23343 57.6866 6.37677 57.9826 6.63853 58.2132C6.89405 58.4438 7.23682 58.6214 7.62944 58.7086C8.34303 58.8645 9.02857 58.6775 9.46171 58.2973L9.56454 58.4718C9.56454 58.4718 9.70788 58.718 9.85745 58.9548C10.0164 59.1885 10.1753 59.4222 10.1753 59.4222C9.9821 59.3287 9.76397 59.2602 9.52403 59.2197C8.74501 59.0857 7.98156 59.3101 7.57024 59.7899C7.6014 59.9364 7.6606 60.0828 7.74474 60.2168C7.83511 60.3477 7.9504 60.4692 8.08439 60.5783C8.35238 60.7933 8.7045 60.9522 9.10024 61.0146C9.82006 61.1299 10.49 60.8961 10.8982 60.4911L11.0104 60.6593C11.0104 60.6593 11.0478 60.7185 11.1132 60.8058C11.1787 60.8899 11.2628 61.0021 11.3501 61.1174C11.5214 61.3417 11.6928 61.5692 11.6928 61.5692C11.4965 61.4882 11.2753 61.429 11.0353 61.4072C10.2345 61.3324 9.48664 61.6035 9.10959 62.1083C9.28721 62.6817 9.92289 63.1553 10.7175 63.2332C11.4342 63.308 12.1042 63.0213 12.4812 62.5913L12.6121 62.7471L13.3444 63.6134C13.1449 63.5448 12.9237 63.4981 12.6806 63.4887C11.886 63.4576 11.1444 63.7879 10.8079 64.3114C11.026 64.8692 11.671 65.3179 12.4781 65.3366C13.2135 65.349 13.8554 65.0281 14.2044 64.5731L14.3415 64.7196C14.3415 64.7196 14.5347 64.9253 14.7279 65.134C14.8245 65.2369 14.9211 65.3397 14.9928 65.4176C15.0676 65.4924 15.1205 65.5422 15.1205 65.5422C14.9086 65.4955 14.6905 65.4581 14.4506 65.4612C13.6622 65.4768 12.9455 65.8539 12.6432 66.3992C12.7648 66.6765 12.9954 66.9133 13.2945 67.0816C13.603 67.2405 13.98 67.3247 14.3851 67.306C15.1143 67.2748 15.7313 66.9133 16.0491 66.4366L16.1956 66.5768C16.1956 66.5768 16.2454 66.6267 16.3234 66.6983C16.3981 66.7731 16.501 66.8728 16.61 66.9632C16.8219 67.1502 17.0369 67.3371 17.0369 67.3371C16.8282 67.2966 16.6007 67.2841 16.3576 67.3091C15.563 67.387 14.8868 67.7983 14.6126 68.3685C14.8837 68.9139 15.616 69.2348 16.4075 69.1569C17.1273 69.0853 17.7194 68.6802 18.006 68.1847L18.165 68.3093L19.0531 69.0136C18.8443 68.9855 18.6168 68.9855 18.38 69.0229C17.5947 69.1507 16.9341 69.6212 16.7035 70.2008C17.0276 70.7056 17.7474 71.0172 18.542 70.8739C19.2649 70.743 19.829 70.3005 20.0845 69.7864L20.2496 69.9048C20.2496 69.9048 20.4802 70.0699 20.7108 70.2351C20.9383 70.4034 21.1782 70.556 21.1782 70.556C20.9632 70.5467 20.7357 70.5623 20.5052 70.6121C19.7355 70.7804 19.1091 71.2914 18.9159 71.8866C19.0904 72.1328 19.3584 72.326 19.6887 72.4257C20.019 72.5223 20.4054 72.5348 20.7949 72.4382C21.5023 72.2699 22.0352 71.7963 22.2564 71.2634L22.4278 71.3725L23.4 71.9552C23.1881 71.9552 22.9638 71.9832 22.7332 72.0518C21.9697 72.2792 21.3745 72.8308 21.2219 73.4353C21.6082 73.8934 22.3592 74.1084 23.132 73.8653C23.83 73.6441 24.3348 73.1362 24.5218 72.594L24.6994 72.6906C24.6994 72.6906 24.9487 72.8246 25.198 72.9617C25.4504 73.0894 25.7028 73.2172 25.7028 73.2172C25.4909 73.2328 25.2665 73.2764 25.0391 73.3605C24.2943 73.6316 23.7397 74.2112 23.6244 74.8282C24.0232 75.2863 24.8116 75.414 25.5563 75.1398C26.2388 74.8781 26.7124 74.3359 26.862 73.7812L27.0458 73.8653L27.56 74.1022C27.8217 74.2143 28.0804 74.3234 28.0804 74.3234C27.8685 74.3515 27.6504 74.4107 27.4291 74.5104C26.7062 74.8251 26.1858 75.4452 26.111 76.0653C26.541 76.4922 27.3325 76.5826 28.0648 76.2523C28.7316 75.9438 29.1648 75.3735 29.277 74.8095L29.467 74.8812C29.467 74.8812 29.7288 74.9871 29.9968 75.0775L30.5296 75.2676C30.3209 75.3081 30.1058 75.3798 29.894 75.4919C29.1866 75.8659 28.7161 76.5078 28.6818 77.1372C29.1492 77.5268 29.9469 77.5766 30.6605 77.1871C31.3087 76.8381 31.6951 76.2305 31.7605 75.6602L31.9537 75.7194L32.0908 75.2364L31.9007 75.1803C32.15 74.66 32.15 73.9526 31.8914 73.3107L31.8945 73.2826Z" fill="#2C6AB1"/>
<path d="M3.13832 25.494C3.57145 25.1637 3.89241 24.6246 3.9485 23.9702C4.01706 23.185 3.6961 22.4745 3.18194 22.0943C2.6117 22.3498 2.17233 22.998 2.10377 23.802C2.04457 24.4719 2.26581 25.0702 2.63662 25.4566L2.61793 25.6591L3.1165 25.6934L3.1352 25.4909L3.13832 25.494Z" fill="#2C6AB1"/>
<path d="M65.9092 34.138C65.7191 34.2907 65.5664 34.4621 65.4449 34.6366C65.4449 34.6366 65.4667 34.3562 65.4854 34.0726C65.4979 33.789 65.501 33.5086 65.501 33.5086V33.306C66.0681 33.4213 66.7599 33.2468 67.299 32.7701C67.8941 32.2435 68.1247 31.5112 67.9347 30.9565C67.3426 30.7727 66.5605 30.9752 65.9622 31.5018C65.7814 31.6607 65.6381 31.8384 65.5259 32.0191L65.5446 30.888V30.6854C66.1086 30.782 66.8097 30.5795 67.3364 30.084C67.9035 29.5356 68.0936 28.8002 67.8754 28.2549C67.274 28.0928 66.5013 28.3234 65.9341 28.8687C65.7627 29.0339 65.6287 29.2146 65.5259 29.4016L65.4854 28.2735L65.4792 28.071C66.0494 28.1458 66.7287 27.9214 67.2398 27.4073C67.8038 26.8401 68.0094 26.0954 67.7508 25.5594C67.1401 25.4161 66.3797 25.6716 65.8406 26.2387C65.6693 26.4101 65.5353 26.5971 65.4355 26.7841C65.4355 26.7841 65.4231 26.5005 65.4137 26.22C65.3888 25.9396 65.3639 25.6591 65.3639 25.6591L65.3452 25.4566C65.716 25.0671 65.9372 24.4719 65.878 23.802C65.8064 22.998 65.3701 22.3498 64.7999 22.0943C64.2857 22.4745 63.9647 23.185 64.0333 23.9702C64.0894 24.6246 64.4104 25.1637 64.8435 25.494L64.8622 25.6965C64.8622 25.6965 64.8871 25.977 64.912 26.2543L64.9339 26.8152C64.8186 26.6407 64.6752 26.4724 64.4914 26.326C63.8588 25.8399 63.0642 25.7121 62.4877 25.924C62.3506 26.4537 62.5687 27.1112 63.1795 27.5974C63.7248 28.0367 64.4197 28.2112 64.9806 28.0959L64.9868 28.2954L65.0273 29.4172C64.912 29.2364 64.7656 29.065 64.5849 28.9123C63.9803 28.4044 63.192 28.2486 62.603 28.4418C62.4223 28.9653 62.6622 29.629 63.2699 30.1339C63.8058 30.5888 64.4789 30.7914 65.0491 30.6948V30.8942L65.0242 32.016C64.9183 31.8321 64.7843 31.6545 64.6067 31.4956C64.0302 30.969 63.2512 30.7851 62.6529 30.9565C62.4441 31.4707 62.6498 32.1406 63.2262 32.6672C63.7497 33.144 64.4322 33.3684 64.9993 33.2936V33.493C64.9993 33.493 64.9962 33.7735 64.9806 34.0539C64.9588 34.3344 64.9401 34.6117 64.9401 34.6117C64.8435 34.4247 64.7188 34.244 64.5537 34.0757C63.9897 33.5273 63.2044 33.3123 62.6092 33.4618C62.5563 33.5896 62.5313 33.7267 62.5313 33.8701C62.522 34.0134 62.5376 34.1599 62.5781 34.3094C62.6591 34.6086 62.8367 34.9139 63.1109 35.1882C63.6064 35.6836 64.2764 35.936 64.8497 35.8831L64.8341 36.0825L64.7531 37.2012C64.6596 37.0111 64.5319 36.821 64.3667 36.6496C63.8214 36.0762 63.0548 35.8332 62.4503 35.9578C62.3319 36.204 62.3163 36.5 62.3974 36.8023C62.4379 36.955 62.5033 37.1077 62.5905 37.2604C62.6716 37.4131 62.7775 37.5595 62.9053 37.7029C63.3727 38.217 64.0271 38.4975 64.6035 38.4694L64.5786 38.6688L64.4322 39.7813C64.348 39.585 64.2327 39.3918 64.0769 39.2142C63.5628 38.619 62.8118 38.3448 62.1979 38.4414C61.9362 38.9244 62.0639 39.6068 62.5781 40.202C63.0517 40.741 63.6687 41.0464 64.2514 41.0464L64.214 41.2427L64.0053 42.3427C63.9336 42.1433 63.8276 41.947 63.6812 41.76C63.2013 41.143 62.4659 40.8376 61.8458 40.9031C61.556 41.3705 61.6433 42.056 62.1263 42.6699C62.5594 43.2246 63.1951 43.5673 63.7653 43.5954L63.7279 43.7917C63.7279 43.7917 63.7186 43.8603 63.6905 43.9631C63.6656 44.0659 63.6313 44.1999 63.597 44.337L63.4599 44.8792C63.3976 44.6767 63.3072 44.4772 63.1701 44.284C62.7308 43.6484 61.9923 43.3025 61.3815 43.343C61.0699 43.7948 61.1135 44.4772 61.5622 45.1129C61.9642 45.6863 62.5781 46.0633 63.1483 46.1163L63.0985 46.3095L62.9582 46.8517C62.8741 47.1197 62.79 47.3846 62.79 47.3846C62.7401 47.182 62.6591 46.9764 62.5376 46.7769C62.1107 46.1132 61.394 45.733 60.7801 45.7393C60.7022 45.8483 60.6461 45.9761 60.6118 46.1132C60.5744 46.2503 60.5526 46.3936 60.5589 46.5463C60.5682 46.8517 60.6741 47.1882 60.8767 47.5154C61.2444 48.1075 61.8365 48.5157 62.4036 48.5998L62.3444 48.7899C62.3444 48.7899 62.2602 49.0579 62.1761 49.3228C62.1356 49.4568 62.092 49.5908 62.0515 49.6874C62.0141 49.784 61.9891 49.8494 61.9891 49.8494C61.9517 49.6437 61.8863 49.4349 61.7617 49.2262C61.3628 48.5375 60.6773 48.1231 60.0603 48.095C59.8858 48.3038 59.8172 48.5874 59.8079 48.8927C59.8016 49.1981 59.8858 49.5378 60.0696 49.8743C60.403 50.4851 60.9702 50.9244 61.5342 51.0397L61.4625 51.2267C61.4625 51.2267 61.3628 51.4885 61.2631 51.7502C61.2132 51.8811 61.1665 52.012 61.1229 52.1086C61.0792 52.2052 61.0512 52.2675 61.0512 52.2675C61.0294 52.0618 60.9639 51.8437 60.8549 51.6287C60.4965 50.9213 59.8359 50.4695 59.222 50.4072C59.0382 50.6066 58.9447 50.8777 58.9291 51.1893C58.9042 51.4916 58.9696 51.8343 59.1348 52.1833C59.4339 52.8097 59.973 53.2833 60.5277 53.4298L60.4467 53.6105C60.4467 53.6105 60.3314 53.866 60.2161 54.1216C60.107 54.3802 59.973 54.6264 59.973 54.6264C59.9637 54.4207 59.9107 54.1995 59.8141 53.9782C59.4994 53.2491 58.8637 52.7629 58.2561 52.6632C58.0629 52.8502 57.9507 53.1182 57.9195 53.4236C57.8759 53.7258 57.9195 54.0686 58.066 54.4269C58.3277 55.072 58.8388 55.5737 59.3841 55.7544L59.2906 55.932C59.2906 55.932 59.1597 56.1813 59.032 56.4275C58.9696 56.5521 58.898 56.6736 58.845 56.764C58.792 56.8544 58.7546 56.9136 58.7546 56.9136C58.7546 56.7048 58.7266 56.4898 58.6393 56.2592C58.3682 55.5145 57.7606 54.9878 57.1623 54.8507C56.9535 55.0221 56.8382 55.2901 56.7759 55.583C56.7167 55.8822 56.7416 56.228 56.8632 56.5926C57.0844 57.2532 57.5674 57.7861 58.0971 58.0011L57.9943 58.1725C57.9943 58.1725 57.8541 58.4155 57.7045 58.6492C57.5487 58.8798 57.3898 59.1135 57.3898 59.1135C57.4023 58.9048 57.3836 58.6835 57.3212 58.4561C57.1031 57.6988 56.5235 57.1317 55.9346 56.9634C55.8286 57.0445 55.7383 57.1473 55.6697 57.2688C55.5949 57.3841 55.5357 57.5181 55.4952 57.6646C55.4204 57.9575 55.4235 58.3096 55.5264 58.6835C55.7102 59.3566 56.1558 59.9206 56.6731 60.1699L56.5609 60.3351C56.5609 60.3351 56.5235 60.3943 56.4612 60.4784C56.3989 60.5625 56.3116 60.6747 56.2275 60.7838C56.0592 61.005 55.8878 61.2294 55.8878 61.2294C55.9096 61.0206 55.9065 60.7962 55.8567 60.5656C55.704 59.8084 55.1587 59.2039 54.5822 58.9951C54.1241 59.2818 53.9029 59.9175 54.0649 60.6809C54.2145 61.3727 54.6102 61.9523 55.1119 62.2359L54.9842 62.3886L54.2612 63.2424C54.2955 63.0336 54.3017 62.8092 54.2675 62.5755C54.1553 61.7996 53.6629 61.1733 53.0958 60.924C52.619 61.1764 52.376 61.8152 52.4788 62.5786C52.5661 63.2611 52.9307 63.8749 53.4105 64.1928L53.2734 64.3392C53.2734 64.3392 53.0833 64.5449 52.8901 64.7474C52.7935 64.8503 52.7001 64.9531 52.6284 65.0279C52.5536 65.0996 52.5037 65.1494 52.5037 65.1494C52.5598 64.95 52.5754 64.7194 52.5536 64.4826C52.4851 63.6973 52.0332 63.0367 51.4879 62.75C51.2448 62.8653 51.0548 63.0772 50.9301 63.3577C50.7961 63.6288 50.7307 63.9715 50.7556 64.3548C50.8024 65.0466 51.1264 65.6885 51.5845 66.0344L51.4412 66.1746C51.4412 66.1746 51.3913 66.2245 51.3165 66.2961C51.2417 66.3709 51.142 66.4675 51.0329 66.5579C50.8211 66.7417 50.6123 66.9256 50.6123 66.9256C50.6777 66.7262 50.7151 66.508 50.7151 66.2712C50.7089 65.4922 50.2882 64.788 49.7678 64.4732C49.2786 64.6789 48.9234 65.246 48.9327 66.0282C48.9389 66.7324 49.2194 67.3868 49.6556 67.7638L49.4998 67.8885L48.6242 68.5834C48.699 68.3839 48.752 68.1658 48.7644 67.929C48.8049 67.1468 48.4466 66.4364 47.9418 66.078C47.4214 66.2307 47.0599 66.8103 47.007 67.5769C46.9571 68.2655 47.197 68.9386 47.6052 69.3437L47.4432 69.459C47.4432 69.459 47.2157 69.621 46.9883 69.7862C46.7639 69.9544 46.5271 70.104 46.5271 70.104C46.6174 69.917 46.686 69.7051 46.7109 69.4652C46.7982 68.68 46.4834 67.9446 46.0036 67.5582C45.7418 67.6205 45.5175 67.7981 45.3336 68.0443C45.1498 68.2873 45.022 68.6114 44.9721 68.9947C44.8849 69.6865 45.0812 70.3782 45.4645 70.8051L45.2962 70.9142L44.3365 71.4907C44.4362 71.3037 44.5141 71.0949 44.5577 70.8612C44.701 70.0915 44.4362 69.3406 43.9781 68.9199C43.4421 69.004 43.0059 69.5338 42.8563 70.2879C42.7192 70.9672 42.8719 71.6683 43.2271 72.1201L43.0526 72.2167C43.0526 72.2167 42.8065 72.3507 42.5603 72.4847C42.311 72.6093 42.0617 72.7371 42.0617 72.7371C42.1739 72.5595 42.2674 72.3569 42.3266 72.1295C42.5135 71.366 42.2954 70.5901 41.8685 70.1476C41.3419 70.2255 40.8558 70.6836 40.6657 71.4439C40.4881 72.117 40.594 72.8181 40.9181 73.2949L40.7374 73.379C40.7374 73.379 40.4818 73.4974 40.2294 73.6127L39.7153 73.8309C39.8399 73.6595 39.9459 73.4663 40.0175 73.2419C40.2513 72.4878 40.083 71.7057 39.6872 71.2352C39.1544 71.2725 38.6465 71.7088 38.4065 72.4504C38.1853 73.1048 38.2445 73.8184 38.5374 74.3139L38.3504 74.3855C38.3504 74.3855 38.0918 74.4915 37.8269 74.5787C37.5652 74.6722 37.3003 74.7657 37.3003 74.7657C37.4343 74.6037 37.5527 74.4136 37.64 74.1923C37.9298 73.4694 37.8082 72.6654 37.4468 72.1731C36.9139 72.1637 36.3904 72.5751 36.0975 73.2824C35.8389 73.9212 35.8357 74.6317 36.0881 75.1521L35.8981 75.2082L35.3995 75.3453C35.2655 75.3796 35.1845 75.5135 35.2156 75.6507C35.2468 75.7847 35.387 75.8657 35.5241 75.8314L36.0352 75.6912L36.2284 75.632C36.2938 76.2022 36.6833 76.8098 37.3284 77.1588C38.0419 77.5484 38.8428 77.4985 39.3071 77.109C39.2728 76.4795 38.8023 75.8407 38.0949 75.4637C37.8799 75.3515 37.668 75.2798 37.4592 75.2393C37.4592 75.2393 37.7272 75.1459 37.9921 75.0493C38.2601 74.9589 38.5249 74.8529 38.5249 74.8529L38.715 74.7813C38.8272 75.3453 39.2603 75.9155 39.9272 76.224C40.6563 76.5512 41.4478 76.4608 41.881 76.0371C41.8062 75.417 41.2858 74.7968 40.5629 74.4821C40.3416 74.3855 40.1204 74.3232 39.9116 74.2952C39.9116 74.2952 40.1734 74.183 40.432 74.0739C40.6906 73.9555 40.9461 73.8371 40.9461 73.8371L41.13 73.753C41.2796 74.3045 41.7532 74.8498 42.4356 75.1116C43.1835 75.3858 43.9688 75.258 44.3676 74.8C44.2492 74.183 43.6977 73.6034 42.9529 73.3323C42.7254 73.2481 42.5042 73.2045 42.2892 73.1889C42.2892 73.1889 42.5416 73.0612 42.794 72.9334C43.0433 72.7994 43.2926 72.6623 43.2926 72.6623L43.4702 72.5657C43.6571 73.111 44.1588 73.6158 44.86 73.8371C45.6328 74.0833 46.3869 73.8651 46.7701 73.4071C46.6174 72.8057 46.0223 72.251 45.2588 72.0235C45.0282 71.955 44.8039 71.9269 44.592 71.9269L45.5642 71.3442L45.7356 71.2352C45.9568 71.768 46.4897 72.2385 47.197 72.4099C47.5897 72.5034 47.9729 72.4909 48.3032 72.3975C48.6336 72.2977 48.9015 72.1045 49.076 71.8584C48.8828 71.2632 48.2565 70.7553 47.4868 70.5839C47.2562 70.534 47.0288 70.5184 46.8138 70.5278C46.8138 70.5278 47.0537 70.3782 47.2812 70.2068C47.5118 70.0417 47.7424 69.8765 47.7424 69.8765L47.9075 69.7581C48.163 70.2723 48.727 70.7148 49.45 70.8456C50.2446 70.9859 50.9675 70.6774 51.2885 70.1726C51.061 69.593 50.3973 69.1224 49.612 68.9947C49.3752 68.9573 49.1477 68.9573 48.9389 68.9853L49.827 68.2811L49.9859 68.1564C50.2726 68.655 50.8647 69.0601 51.5845 69.1287C52.3791 69.2066 53.1083 68.8856 53.3794 68.3403C53.1052 67.7701 52.429 67.3587 51.6344 67.2808C51.3913 67.2559 51.1638 67.2684 50.955 67.3089C50.955 67.3089 51.1669 67.1219 51.3819 66.9349C51.491 66.8446 51.5907 66.7449 51.6686 66.6701C51.7465 66.5953 51.7964 66.5485 51.7964 66.5485L51.9428 66.4083C52.2638 66.8882 52.8777 67.2466 53.6068 67.2777C54.0119 67.2964 54.389 67.2092 54.6975 67.0534C54.9966 66.8851 55.2241 66.6451 55.3487 66.3709C55.0434 65.8256 54.3267 65.4486 53.5383 65.433C53.2984 65.4268 53.0802 65.4641 52.8683 65.514C52.8683 65.514 52.9182 65.4641 52.9961 65.3894C53.0678 65.3115 53.1644 65.2086 53.261 65.1058C53.4542 64.9001 53.6474 64.6914 53.6474 64.6914L53.7845 64.5449C54.1335 64.9998 54.7754 65.3208 55.5108 65.3083C56.3178 65.2896 56.9629 64.8409 57.181 64.2831C56.8413 63.7628 56.1028 63.4293 55.3082 63.4605C55.0683 63.4698 54.847 63.5166 54.6445 63.5851L55.3768 62.7189L55.5077 62.5631C55.8847 62.9931 56.5547 63.2798 57.2714 63.205C58.066 63.1271 58.7017 62.6534 58.8793 62.0801C58.5022 61.5753 57.7544 61.3042 56.9535 61.3789C56.7136 61.4039 56.4923 61.46 56.296 61.541C56.296 61.541 56.4674 61.3166 56.6388 61.0891C56.7229 60.977 56.8102 60.8648 56.8756 60.7775C56.9379 60.6934 56.9785 60.6311 56.9785 60.6311L57.0906 60.4628C57.4988 60.871 58.1719 61.1016 58.8886 60.9863C59.2875 60.924 59.6365 60.7651 59.9045 60.5501C60.0385 60.441 60.1538 60.3195 60.2441 60.1886C60.3283 60.0546 60.3875 59.9081 60.4186 59.7617C60.0073 59.2849 59.2439 59.0575 58.4648 59.1914C58.2249 59.2288 58.0068 59.3005 57.8136 59.394L58.1314 58.9266C58.2841 58.6866 58.4243 58.4436 58.4243 58.4436L58.5272 58.2691C58.9603 58.6492 59.6458 58.8393 60.3594 58.6804C60.7521 58.5932 61.0948 58.4155 61.3503 58.1849C61.6121 57.9575 61.7554 57.6583 61.8053 57.3623C61.369 56.9136 60.5838 56.7297 59.8235 56.9167C59.596 56.9759 59.3779 57.0569 59.1909 57.1598C59.1909 57.1598 59.2283 57.1005 59.2813 57.0071C59.3373 56.9167 59.409 56.7952 59.4713 56.6674C59.6022 56.4181 59.7331 56.1657 59.7331 56.1657L59.8266 55.9881C60.2815 56.3402 60.9795 56.4867 61.6838 56.2872C62.0733 56.1782 62.4036 55.9788 62.6466 55.7357C62.8803 55.4864 63.0143 55.1873 63.0424 54.8881C62.5812 54.4674 61.7866 54.3303 61.0356 54.564C60.8113 54.6357 60.6118 54.7354 60.4249 54.8476C60.4249 54.8476 60.5589 54.5983 60.671 54.3366C60.7863 54.0779 60.9047 53.8193 60.9047 53.8193L60.9889 53.6355C61.4656 53.9595 62.1699 54.0655 62.8617 53.8255C63.2449 53.6915 63.5628 53.4765 63.7902 53.2179C64.0053 52.9561 64.1237 52.6476 64.1361 52.3485C63.65 51.9528 62.8492 51.8655 62.1138 52.1397C61.8925 52.2239 61.6993 52.336 61.5217 52.4607C61.5217 52.4607 61.5498 52.3952 61.5934 52.2986C61.637 52.202 61.6838 52.0681 61.7336 51.9372C61.8333 51.6723 61.9362 51.4074 61.9362 51.4074L62.0078 51.2174C62.5002 51.5134 63.2138 51.5757 63.8868 51.2984C64.2608 51.1457 64.563 50.9089 64.778 50.6409C64.9931 50.3698 65.0803 50.0551 65.0772 49.759C64.5693 49.3913 63.7653 49.3477 63.0486 49.6655C62.8367 49.7621 62.6373 49.8837 62.469 50.0177C62.469 50.0177 62.494 49.9522 62.5313 49.8525C62.5719 49.7559 62.6186 49.6188 62.6591 49.4848C62.7432 49.2137 62.8305 48.9457 62.8305 48.9457L62.8928 48.7525C63.4038 49.0205 64.1143 49.0454 64.7718 48.7276C65.1333 48.5531 65.4231 48.3038 65.6194 48.0234C65.716 47.8831 65.7939 47.7367 65.8375 47.584C65.878 47.4313 65.8936 47.2786 65.878 47.129C65.3483 46.7894 64.5506 46.7894 63.8463 47.1415C63.6251 47.2475 63.4381 47.3783 63.2792 47.5217C63.2792 47.5217 63.3633 47.2506 63.4506 46.9826L63.5908 46.4342L63.6407 46.2378C64.1642 46.4778 64.8778 46.4622 65.5103 46.1132C66.2115 45.7268 66.6072 45.0537 66.5449 44.4648C65.9996 44.1532 65.205 44.1937 64.4976 44.577C64.2857 44.6954 64.105 44.8356 63.9554 44.9852L64.0925 44.4367C64.1268 44.2996 64.1611 44.1625 64.186 44.0597C64.2109 43.9569 64.2234 43.8883 64.2234 43.8883L64.2608 43.6889C64.7967 43.9039 65.5041 43.8509 66.118 43.4707C66.7942 43.0501 67.1463 42.3583 67.0559 41.7756C66.5044 41.492 65.6973 41.5668 65.018 41.9875C64.8123 42.1152 64.6441 42.2648 64.5007 42.4237L64.7126 41.3113L64.75 41.1119C65.286 41.2988 66.0214 41.2178 66.601 40.8065C67.2522 40.3547 67.5607 39.6504 67.4392 39.0708C66.8721 38.8153 66.0712 38.9244 65.42 39.3762C65.2236 39.5133 65.0616 39.6691 64.9307 39.8374L65.0772 38.7156L65.1021 38.5162C65.6537 38.6782 66.361 38.5629 66.95 38.1298C67.112 38.0113 67.2553 37.8774 67.3738 37.734C67.4828 37.5907 67.5701 37.438 67.6355 37.2822C67.7602 36.9706 67.7882 36.6496 67.7103 36.3629C67.1307 36.1323 66.3392 36.2757 65.7129 36.7524C65.5228 36.8989 65.3732 37.0609 65.2517 37.2323L65.3358 36.1043L65.3514 35.9017C65.9092 36.042 66.6072 35.8955 67.1743 35.4375C67.4859 35.185 67.7103 34.8797 67.8349 34.5649C67.8973 34.4091 67.9347 34.2471 67.9502 34.0944C67.9565 33.9386 67.9347 33.789 67.8879 33.6488C67.2927 33.44 66.5199 33.6177 65.9092 34.1193V34.138Z" fill="#2C6AB1"/>
<path d="M60.4297 11.9189L60.1336 9.28895L57.4881 9.15808C53.1131 8.94307 44.7775 7.96149 38.1153 3.80462C37.5793 3.4712 36.4419 2.64544 35.8063 2.17179L33.946 0.785126L32.0856 2.17179C31.2848 2.76696 30.2596 3.50548 29.7735 3.80774C23.1113 7.9615 14.7757 8.94307 10.4007 9.15808L7.75516 9.28895L7.45913 11.9189C5.18438 32.1704 11.9058 55.9058 17.9448 62.0569C24.7254 68.9653 32.3754 70.9285 33.2261 71.131L33.9428 71.3024L34.6595 71.131C35.5102 70.9285 43.1571 68.9653 49.9409 62.0569C55.9799 55.9058 62.7013 32.1704 60.4265 11.9189H60.4297ZM34.3043 69.6166L33.946 69.7007L33.5876 69.6166C32.7836 69.4265 25.5356 67.5631 19.0604 60.9663C13.2582 55.0582 6.80475 31.7373 9.01095 12.0934L9.1574 10.7784L10.4786 10.713C15.0032 10.4918 23.6348 9.46969 30.5961 5.12585C31.157 4.77685 32.2508 3.98536 33.0142 3.41823L33.946 2.72645L34.8745 3.42134C35.4386 3.84202 36.6694 4.74257 37.2895 5.12896C44.2509 9.46969 52.8825 10.4918 57.407 10.7161L58.7283 10.7816L58.8747 12.0966C61.0809 31.7404 54.6275 55.0613 48.8253 60.9694C42.3501 67.5662 35.102 69.4296 34.2981 69.6197L34.3043 69.6166Z" fill="#2C6AB1"/>
<path d="M19.3121 44.8825C19.3121 44.8825 19.2996 44.8732 19.2903 44.8701C19.2903 44.8701 19.2092 48.6655 22.4718 50.4385C25.7375 52.2116 25.7375 55.5863 25.7375 55.5863C25.7375 55.5863 18.7512 51.8751 15.3733 44.5335C11.9955 37.1951 11.8428 37.6999 11.8428 37.6999C11.6371 38.3792 12.0079 39.7254 12.0921 40.4047C12.8867 46.7553 15.015 52.5731 19.1095 57.2846C23.0358 61.7998 27.8284 64.5794 32.2345 66.6267C32.2127 66.6173 32.8453 63.9468 32.8671 63.7692C33.3999 59.7744 32.462 54.8914 29.7603 51.9935C26.9403 48.9677 22.7211 46.9984 19.309 44.8857L19.3121 44.8825Z" fill="#2C6AB1"/>
<path d="M52.4985 44.5286C49.1207 51.867 42.1344 55.5814 42.1344 55.5814C42.1344 55.5814 42.1344 52.2067 45.4 50.4336C48.6657 48.6606 48.5816 44.8652 48.5816 44.8652C48.5754 44.8683 48.5691 44.8745 48.5598 44.8776C45.1476 46.9935 40.9285 48.9628 38.1084 51.9854C35.4067 54.8834 34.4657 59.7663 35.0016 63.7612C35.0266 63.9357 35.6591 66.6062 35.6342 66.6186C40.0404 64.5714 44.8329 61.7949 48.7592 57.2766C52.8569 52.565 54.982 46.7473 55.7766 40.3967C55.8608 39.7174 56.2316 38.3712 56.0259 37.6919C56.0259 37.6919 55.8732 37.1871 52.4954 44.5255L52.4985 44.5286Z" fill="#2C6AB1"/>
<path d="M36.5086 50.3303C37.3851 49.5401 38.424 48.8541 39.5291 48.2264C41.284 47.2316 42.1344 45.2982 41.5808 43.4671C41.5728 43.439 41.5628 43.4109 41.5547 43.3829C40.566 44.3656 39.0798 45.4687 36.8556 46.6119C36.8516 46.6139 36.8476 46.6159 36.8416 46.6179C36.6731 46.7222 36.5006 46.8245 36.3161 46.9268C35.2311 47.5264 34.5592 48.3106 34.1641 49.163C33.769 48.3126 33.0971 47.5264 32.0121 46.9268C31.8276 46.8245 31.6551 46.7222 31.4866 46.6179C31.4826 46.6159 31.4786 46.6139 31.4726 46.6119C29.2464 45.4687 27.7622 44.3656 26.7734 43.3829C26.7654 43.4109 26.7554 43.439 26.7474 43.4671C26.1938 45.2982 27.0462 47.2316 28.7991 48.2264C29.9042 48.8541 30.9431 49.5401 31.8195 50.3303C32.7802 51.1967 33.4722 52.3158 33.9134 53.5312C33.9816 53.824 34.0578 54.0928 34.132 54.3315C34.1601 54.3315 34.132 54.3315 34.1581 54.3315C34.1581 54.3274 34.1601 54.3234 34.1621 54.3194C34.1621 54.3234 34.1641 54.3274 34.1661 54.3315C34.1942 54.3315 34.1661 54.3315 34.1922 54.3315C34.2664 54.0928 34.3426 53.822 34.4108 53.5312C34.854 52.3158 35.544 51.1947 36.5046 50.3303H36.5086Z" fill="#2C6AB1"/>
<path d="M37.1516 43.7122C37.8171 42.1056 37.0542 40.2636 35.4475 39.5981C33.8409 38.9326 31.9989 39.6956 31.3334 41.3022C30.6679 42.9089 31.4309 44.7508 33.0375 45.4163C34.6442 46.0818 36.4861 45.3189 37.1516 43.7122Z" fill="#2C6AB1"/>
<path d="M23.0105 36.5096L21.5284 28.1112L19.8817 15.1318H16.2588V12.5569H21.8428L23.2051 20.4014L25.0914 33.9048H28.6993V36.5096H23.0105ZM16.2588 36.5096V16.3744H18.7289L18.9535 27.3777L19.1481 36.5096H16.2588ZM26.1992 32.6622L25.9597 21.4943L25.78 12.5569H28.6993V32.6622H26.1992ZM32.1649 36.5096V12.5569H35.0692V36.5096H32.1649ZM36.7608 25.7159V23.126H40.713V25.7159H36.7608ZM36.7608 15.1468V12.5569H41.0125V15.1468H36.7608ZM47.3342 36.7042C45.8272 36.6044 44.7393 36.1903 44.0706 35.4617C43.402 34.7232 43.0526 33.5804 43.0227 32.0335C43.0027 30.6163 42.9878 29.2939 42.9778 28.0663C42.9678 26.8387 42.9628 25.6461 42.9628 24.4884C42.9628 23.3207 42.9678 22.133 42.9778 20.9254C42.9878 19.7078 43.0027 18.4104 43.0227 17.0331C43.0526 15.4861 43.402 14.3484 44.0706 13.6198C44.7393 12.8813 45.8272 12.4621 47.3342 12.3623V14.8474C46.8452 14.9472 46.4959 15.1568 46.2863 15.4761C46.0767 15.7955 45.9669 16.2746 45.9569 16.9133C45.917 18.3106 45.8871 19.623 45.8671 20.8505C45.8471 22.0781 45.8372 23.2807 45.8372 24.4584C45.8372 25.6361 45.8471 26.8487 45.8671 28.0962C45.8871 29.3438 45.917 30.6961 45.9569 32.1532C45.9669 32.8019 46.0767 33.286 46.2863 33.6054C46.4959 33.9148 46.8452 34.1193 47.3342 34.2191V36.7042ZM49.0558 36.7042V34.2042C49.5448 34.1144 49.8842 33.9098 50.0738 33.5904C50.2734 33.271 50.3782 32.792 50.3882 32.1532C50.4381 30.726 50.473 29.3937 50.493 28.1561C50.5129 26.9186 50.5229 25.7159 50.5229 24.5482C50.5229 23.3706 50.5129 22.1629 50.493 20.9254C50.473 19.6779 50.4381 18.3405 50.3882 16.9133C50.3782 16.2746 50.2734 15.7955 50.0738 15.4761C49.8842 15.1568 49.5448 14.9522 49.0558 14.8624V12.3623C50.5029 12.4721 51.5559 12.8962 52.2146 13.6348C52.8733 14.3733 53.2226 15.5061 53.2625 17.0331C53.3024 18.4104 53.3274 19.7078 53.3373 20.9254C53.3573 22.133 53.3673 23.3207 53.3673 24.4884C53.3673 25.6561 53.3573 26.8537 53.3373 28.0813C53.3274 29.2989 53.3024 30.6163 53.2625 32.0335C53.2226 33.5704 52.8733 34.7032 52.2146 35.4318C51.5559 36.1603 50.5029 36.5845 49.0558 36.7042Z" fill="#2C6AB1"/>
</svg>
